<svg height="0" overflow="hidden" width="0" xmlns="http://www.w3.org/2000/svg"><defs><symbol id="icon-left-arrow" viewBox="0 0 14 32"><path d="m13.037 32c-.001 0-.003 0-.004 0-.371 0-.701-.17-.919-.436l-11.854-14.817c-.162-.201-.26-.459-.26-.741s.098-.54.262-.743l11.85-14.813c.219-.255.541-.416.901-.416.655 0 1.185.531 1.185 1.185 0 .268-.089.516-.24.715l-11.257 14.065 11.259 14.068c.165.202.265.463.265.747 0 .655-.531 1.185-1.185 1.185-.001 0-.003 0-.004 0z" fill="#d7a333"/></symbol><symbol id="icon-right-arrow" viewBox="0 0 14 32"><path d="m1.185 32c-.652-.003-1.18-.533-1.18-1.185 0-.279.096-.535.257-.737l11.257-14.078-11.259-14.08c-.2-.212-.323-.498-.323-.814 0-.655.531-1.185 1.185-1.185.41 0 .772.208.984.525l11.855 14.819c.162.201.26.459.26.741s-.098.54-.262.743l-11.85 14.813c-.219.268-.55.439-.92.439-.001 0-.003 0-.004 0z" fill="#d7a333"/></symbol><symbol id="icon-culture" viewBox="0 0 37 32"><path d="m36.316 11.92c.03-.13.057-.259.08-.381.075-.404.118-.869.118-1.345 0-.011 0-.024 0-.037 0-4.208-3.411-7.619-7.619-7.619-.694 0-1.365.093-2.004.266l.053-.012c-1.787-1.712-4.21-2.772-6.88-2.792h-.004c-.009 0-.019 0-.029 0-2.719 0-5.18 1.105-6.957 2.891q-.331.331-.629.693c-1.141-.673-2.514-1.071-3.979-1.071-4.378 0-7.928 3.549-7.928 7.928 0 .437.035.866.104 1.284l-.006-.046c-.399 1.415-.631 3.041-.636 4.721v.003c0 7.082 4.69 12.75 12.24 14.796 1.833.508 3.938.8 6.111.8h.104-.005.098c2.173 0 4.279-.292 6.278-.839l-.167.039c7.55-2.046 12.24-7.718 12.24-14.796-.009-1.597-.221-3.141-.612-4.612l.029.128zm-2.286 4.484c0 2.457-1.65 7.261-5.189 9.775-4.004 2.838-10.343 2.968-10.404 2.968-.028 0-.061 0-.095 0-1.906 0-3.752-.255-5.507-.731l.147.034c-9.855-3.006-10.13-11.954-10.13-12.046.002-.774.065-1.531.182-2.27l-.011.083c4.358 2.423 9.787 3.745 15.425 3.745s11.067-1.326 15.425-3.745c.107.656.169 1.413.171 2.184v.003zm-23.847-6.526q0 .171 0 .347l-.381.19c-.954.492-2.063.905-3.225 1.18l-.1.02c-.438.107-.944.173-1.464.183h-.007c-.009 0-.019 0-.03 0-.186 0-.368-.018-.544-.053l.018.003c-.343-.19-.678-.381-1.006-.59-.029-.207-.046-.445-.046-.688 0-.005 0-.009 0-.014v.001c0-.003 0-.007 0-.011 0-2.805 2.274-5.078 5.078-5.078.914 0 1.772.242 2.513.664l-.025-.013c-.494 1.13-.781 2.446-.781 3.829v.031-.002zm9.878-7.025c3.88 0 7.025 3.145 7.025 7.025v.156l-.091.107c-.116.168-.282.294-.477.356l-.006.002h-.057c-.198-.024-.375-.101-.52-.215l.002.002c-.823-.609-1.846-.992-2.957-1.04h-.011c-.001 0-.002 0-.003 0-.149 0-.297.008-.442.024l.018-.002c-1.002.11-1.943.59-3.048 1.554-.32.326-.737.557-1.205.645l-.014.002h-.065c-.421-.037-.793-.224-1.066-.506-1.307-1.181-2.446-1.71-3.695-1.71h-.381c.331-3.601 3.336-6.399 6.994-6.4zm13.589 7.657c-.307-.213-.576-.438-.823-.686-.914-.884-1.867-1.333-2.827-1.333h-.156c-.166-1.156-.508-2.199-1.001-3.152l.026.055h.004c2.645 0 4.789 2.144 4.789 4.789v.004q0 .16-.011.32zm-20.218 1.593c.335 0 .842.11 1.794.971.766.757 1.81 1.236 2.965 1.268h.006.293c1.127-.132 2.119-.622 2.882-1.35l-.002.002c.629-.556 1.105-.83 1.486-.872h.11c.539.062 1.021.266 1.42.573l-.007-.005c.58.403 1.296.649 2.069.663h.003c.17-.001.336-.015.498-.041l-.018.002c.921-.163 1.705-.655 2.241-1.348l.006-.008c.461-.556.724-.613.792-.617.091 0 .381.042.872.533.145.141.309.293.488.45-3.703 1.761-8.046 2.79-12.63 2.79-.091 0-.181 0-.272-.001h.014c-.031 0-.067 0-.104 0-3.251 0-6.388-.493-9.338-1.408l.223.06c.748-.289 1.348-.562 1.931-.863l-.11.052c.979-.484 1.771-.853 2.343-.865z"/></symbol><symbol id="icon-arrow" viewBox="0 0 32 32"><path d="m16 32c-8.837 0-16-7.163-16-16s7.163-16 16-16 16 7.163 16 16c-.011 8.832-7.168 15.989-15.999 16zm0-31.169c-8.377 0-15.169 6.791-15.169 15.169s6.791 15.169 15.169 15.169c8.377 0 15.169-6.791 15.169-15.169-.009-8.374-6.795-15.159-15.168-15.169z" fill="#ffdc39"/><path d="m16 27.314c-.137-.004-.267-.025-.391-.063l.01.003-.108-.027h-.029c-.292-.064-.551-.172-.783-.318l.01.006c-.066-.042-.135-.085-.208-.133-.016-.011-.034-.022-.054-.032l-.003-.001c-.087-.046-.163-.101-.229-.164l-7.776-7.798c-.539-.463-.878-1.145-.878-1.907 0-1.386 1.124-2.51 2.51-2.51.758 0 1.437.336 1.898.867l.003.003 3.516 3.505v-11.512c0-1.386 1.124-2.51 2.51-2.51s2.51 1.124 2.51 2.51v11.512l3.516-3.505c.436-.375 1.007-.603 1.632-.603 1.386 0 2.51 1.124 2.51 2.51 0 .628-.231 1.203-.612 1.643l.003-.003-7.792 7.792c-.066.064-.141.118-.223.162l-.005.003c-.02.01-.037.021-.053.032l.001-.001c-.069.05-.135.093-.208.137-.221.139-.478.246-.753.307l-.016.003h-.027l-.112.027c-.109.036-.235.06-.366.066h-.004zm-7.792-11.979c-.927.001-1.678.752-1.678 1.679 0 .463.188.883.491 1.186l7.792 7.792c.013.009.029.018.045.026l.003.001c.056.031.104.062.149.096l-.003-.002c.042.029.087.06.133.087.147.093.319.165.502.206l.011.002-.06.416.081-.416.154.037c.051.022.11.034.171.034s.121-.013.174-.035l-.003.001.154-.037.108.403-.085-.416c.193-.043.363-.115.516-.212l-.007.004c.048-.029.093-.058.139-.091.041-.03.088-.06.137-.086l.007-.003c.02-.01.037-.02.053-.032l-.001.001 7.788-7.788c.329-.307.534-.744.534-1.228 0-.927-.752-1.679-1.679-1.679-.484 0-.92.205-1.227.533l-.001.001-4.927 4.937v-13.519c0-.927-.752-1.679-1.679-1.679s-1.679.752-1.679 1.679v13.519l-4.927-4.927c-.301-.303-.718-.49-1.179-.49-.003 0-.005 0-.008 0z" fill="#ffdc39"/></symbol><symbol id="icon-logo2" viewBox="0 0 88 32"><path d="m47.703 17.486v-5.814c2.278-.447 3.648.963 3.648 3.028.034 1.79-1.583 2.856-3.648 2.787zm3.923.586c1.72-.651 2.717-1.961 2.615-3.785-.172-2.615-2.337-3.957-6.71-3.75l-1.79.068-.745-.01c-.204.396-.459.735-.762 1.024l-.002.001c.516.179.613.571.613 1.256v8.601c0 1.139-.137 1.479-1.617 1.479v.895l1.858-.068h2.167l1.926.068v-.895c-1.479 0-1.479-.275-1.479-1.549v-2.681c.343 0 .722-.034 1.066-.068 1.723 2.304 4.819 5.911 8.506 5.195v-.929c-1.139 0-2.581-1.102-5.643-4.852z"/><path d="m4.955 15.698c-1.926-1.067-2.649-2.031-2.201-3.17.277-.792 1.067-1.139 1.961-.997 1.102.068 1.652.343 1.926 1.445h1.067l-.172-2.4c-5.369-1.139-7.294 1.067-7.192 3.337.102 1.892 1.032 2.96 3.269 4.198 1.79.963 2.167 1.479 2.278 2.478.104 1.139-.757 2.441-2.167 2.34-1.513-.068-2.34-.516-2.581-2.133h-1.142l.138 2.719c4.645 1.995 8.017-.651 8.155-3.028.138-2.065-.55-3.235-3.337-4.782z"/><path d="m18.267 21.168c-3.091 2.408-4.61.688-4.61-.651 0-1.72 1.513-2.649 4.61-2.685zm2.856-.379v-7.322c0-1.996-.927-3.028-3.58-3.028-3.005 0-4.92 1.302-5.884 2.546-.447.651-.757 1.824.104 1.857.584.034 2.201-.447 2.201-.893 0-1.342 1.22-2.47 3.181-2.504 1.139 0 1.119.887 1.119 2.677v2.511c-4.748-.102-7.363 1.892-7.467 4.268-.104 2.306 2.512 5.264 7.535 1.617 0 1.17 2.099 2.856 5.161.55l-.516-.757c-1.686 1.1-1.858-.275-1.858-1.515z"/><path d="m35.742 9.642c-.068.929-.068 11.354-.068 11.354 0 1.539-.583 1.861-1.953 1.894h-.626c-1.861-.008-2.402-.285-2.402-2.309v-8.659h4.597v-1.346h-4.631l.031-3.091c.033-6.699 4.294-6.297 5.47-4.881l.018.023c.031.039.062.078.088.117.03.046.059.085.091.122l-.002-.002c.209.292.402.624.563.974l.016.038c-.727 1.417-1.194 3.295-1.194 5.766zm4.906 2.278c2.818.007 3.121-1.956 3.121-1.956-.618.36-1.352.612-3.555.612h-1.925l.034-3.091c.034-6.915 4.575-6.263 5.574-4.748.55.859 1.754.618 2.34-.034.55-.62.138-1.721-1.547-2.408-1.266-.517-3.895-.456-5.978 1.315-.225-.47-.758-.958-1.656-1.326-2.278-.929-8.949 0-8.949 9.359 0 .929-.068 11.354-.068 11.354 0 1.756-.757 1.926-2.581 1.892v.963l2.89-.068h9.906l3.091.068v-.963c-2.374.034-3.028-.068-3.028-2.306v-8.656z"/><path d="m64.748 22.958c-2.753-.068-4.025-3.131-4.266-5.532-.345-2.966.859-6.098 3.951-5.994 2.753.07 4.025 3.165 4.302 5.574.343 2.929-.895 6.056-3.993 5.952zm-.452-12.691c-3.544.104-6.881 2.994-6.71 7.364.172 3.853 3.405 6.671 7.226 6.572 3.475-.102 6.847-2.994 6.671-7.363-.172-3.819-3.407-6.64-7.192-6.572z"/><path d="m86.273 10.605h-1.339l-1.689-.029v.929c1.238 0 1.445.447 1.445 1.858v6.263c-1.926-2.278-7.467-8.052-8.298-9.05l-1.926.034-1.715-.034v.929c1.651 0 1.926.413 1.926 2.278v6.393c0 2.374-.207 2.753-1.549 2.753v.929l1.79-.068h1.302l1.79.068v-.929c-1.341 0-1.547-.275-1.547-2.615v-5.82c1.72 2.278 7.708 8.362 8.637 9.462h1.377v-10.529c0-1.479.241-1.926 1.445-1.926v-.924z"/><path d="m27.704 10.275h-.267s-.934.688-3.131.688v.963h3.396z"/><path d="m13.79 28.103-.591 2.543-.597-2.543h-.631v3.837h.622v-1.777l.389 1.777h.447l.376-1.765v1.765h.615v-3.837z"/><path d="m16.095 28.103v3.837h1.503v-.612h-.866v-1.001h.745v-.613h-.745v-1.001h.866v-.61z"/><path d="m19.816 28.713v2.615h.197q.187 0 .189-.216v-2.18q0-.218-.189-.218zm-.637-.611h.884q.77 0 .771.83v2.179q0 .827-.804.828h-.851z"/><path d="m22.48 28.103h.638v3.837h-.638z"/><path d="m24.65 28.103v.61h.508v3.227h.638v-3.227h.508v-.61h-1.653z"/><path d="m27.826 28.103v3.837h1.502v-.612h-.864v-1.001h.744v-.613h-.744v-1.001h.864v-.61z"/><path d="m31.548 28.713v1.001h.076c.008 0 .018.001.027.001.038 0 .074-.004.109-.013l-.003.001c.072-.03.122-.1.122-.182 0-.008 0-.016-.001-.024v.001-.566q0-.218-.189-.218zm-.633-.61h.838q.771 0 .771.83v.566q0 .521-.418.675l.615 1.767h-.696l-.438-1.65h-.034v1.648h-.638z"/><path d="m34.838 28.713v1.001h.076c.008 0 .018.001.027.001.038 0 .074-.004.109-.013l-.003.001c.072-.03.122-.1.122-.182 0-.008-.001-.016-.001-.024v.001-.566q0-.218-.189-.218zm-.638-.611h.838q.77 0 .771.83v.566q0 .521-.418.675l.615 1.767h-.698l-.438-1.65h-.034v1.65h-.638z"/><path d="m38.3 29.367.153 1.162h-.306zm-.412-1.264-.389 2.467-.182 1.37h.643l.107-.797h.47l.106.797h.651l-.182-1.377-.387-2.46z"/><path d="m41.844 28.103v1.889l-.425-1.889h-.631v3.837h.617v-1.839l.407 1.839h.631v-3.837z"/><path d="m44.119 28.103v3.837h1.502v-.612h-.864v-1.001h.744v-.613h-.744v-1.001h.864v-.61z"/><path d="m48.011 29.367.153 1.162h-.308zm-.412-1.264-.389 2.467-.187 1.37h.651l.107-.797h.47l.106.797h.651l-.195-1.377-.387-2.46z"/><path d="m51.556 28.103v1.889l-.425-1.889h-.631v3.837h.617v-1.839l.407 1.839h.63v-3.837h-.597z"/><path d="m57.111 28.103-.491 1.523v-1.523h-.638v3.837h.638v-1.529l.491 1.529h.683l-.732-1.918.732-1.918h-.683z"/><path d="m59.307 28.103h.638v3.837h-.638z"/><path d="m61.478 28.103v.61h.508v3.227h.638v-3.227h.508v-.61h-1.653z"/><path d="m66.27 31.17q0 .828-.828.83t-.827-.83v-2.299q0-.828.827-.828t.828.828v.543h-.638v-.543q0-.215-.187-.216c-.124 0-.186.072-.186.216v2.299q0 .216.189.216c.127 0 .19-.072.19-.216v-.543h.638z"/><path d="m68.904 28.103v1.611h-.377v-1.611h-.638v3.837h.638v-1.612h.377v1.612h.638v-3.837z"/><path d="m71.218 28.103v3.837h1.503v-.612h-.866v-1.001h.744v-.613h-.744v-1.001h.866v-.61z"/><path d="m75.357 28.103v1.889l-.426-1.889h-.63v3.837h.617v-1.839l.407 1.839h.63v-3.837h-.597z"/></symbol><symbol id="icon-mission" viewBox="0 0 37 32"><path d="m2.121 10.57 3.438-1.805 3.434 1.805-.654-3.826 2.775-2.706-3.838-.558-1.717-3.48-1.721 3.48-3.838.558 2.779 2.706z"/><path d="m31.769 0-1.717 3.464-3.849.558 2.779 2.695-.654 3.826 3.434-1.805 3.434 1.805-.654-3.826 2.779-2.695-3.83-.558zm1.875 5.82-.485.473.115.67.216 1.247-1.12-.589-.601-.308-.589.308-1.12.589.216-1.247.115-.67-.485-.473-.92-.881 1.921-.277.3-.608.558-1.136.57 1.132.3.608 1.921.277z"/><path d="m10.008 19.921c-.581.831-.566 2.059.05 3.753.642 1.617 1.444 3.014 2.413 4.276l-.03-.041c.413.535.867 1.005 1.367 1.42l.015.012.266.239c.1.303.194.677.262 1.06l.008.052c.015.088.035.164.061.238l-.003-.011.039.108.339.974h9.493l.308-1.039.385-1.359c.574-.589 1.767-1.979 1.767-4.927 0-.885 0-2.879 0-4.485v-1.917c.001-.029.002-.063.002-.098 0-1.397-1.132-2.529-2.529-2.529-.029 0-.058.001-.087.001h.004s-.001 0-.002 0c-.116 0-.23.01-.341.029l.012-.002c-.439-.738-1.233-1.224-2.14-1.224-.005 0-.011 0-.016 0h .001c-.003 0-.006 0-.009 0-.328 0-.641.062-.929.175l.017-.006q-.073-.089-.154-.169c-.471-.469-1.121-.76-1.839-.76-.103 0-.205.006-.306.018l.012-.001c0-.816 0-1.494 0-1.817.001-.032.002-.069.002-.106 0-.942-.515-1.763-1.279-2.197l-.012-.007 1.54-.805 3.434 1.805-.654-3.826 2.779-2.695-3.872-.597-1.717-3.464-1.725 3.464-3.849.574 2.779 2.695-.439 2.552c-1.197.191-2.103 1.207-2.121 2.439v.002c-.035 3.203-.035 5.924-.023 7.884-.432-.332-.972-.544-1.559-.577h-.007c-.005 0-.011 0-.016 0-.699 0-1.317.349-1.688.883l-.004.007zm4.273 3.464h.046c.25-.024.443-.233.443-.487 0-.006 0-.012 0-.018v.001c0-.096-.081-4.669 0-11.117.021-.583.499-1.048 1.085-1.048.016 0 .033 0 .049.001h-.002.011c.585 0 1.059.474 1.059 1.059 0 .045-.003.089-.008.132l.001-.005s0 6.863 0 7.017c-.019.366.185.539.385.539.234-.011.419-.203.419-.438 0-.018-.001-.035-.003-.053v.002c0-.112 0-2.875 0-2.875-.001-.017-.002-.036-.002-.055 0-.491.398-.889.889-.889.017 0 .034 0 .05.001h-.002.025c.604 0 1.093.489 1.093 1.093 0 .022-.001.043-.002.065v-.003 2.914c-.002.016-.003.035-.003.054 0 .235.185.428.418.438h.001c.2 0 .385-.158.385-.477v-2.31c-.001-.017-.002-.038-.002-.058 0-.527.427-.955.955-.955.013 0 .026 0 .038.001h-.002c.02-.001.043-.002.066-.002.574 0 1.039.465 1.039 1.039 0 .016 0 .031-.001.047v-.002 3.022c-.001.011-.002.024-.002.037 0 .223.168.407.385.432h.002c.237-.001.429-.194.429-.431 0-.014-.001-.027-.002-.04v.002-.847c-.027-1.563.104-2.071.601-2.071.023-.002.049-.003.076-.003.597 0 1.082.484 1.082 1.082 0 .027-.001.053-.003.079v-.003s0 .185 0 .473c0 1.409.023 4.727.023 5.928 0 2.556-1.02 3.58-1.455 4.019-.055.052-.106.107-.152.166l-.002.003-.5 1.69h-7.352l-.039-.108s-.239-1.324-.485-1.682c-.159-.191-.332-.36-.52-.51l-.007-.006c-.43-.359-.809-.753-1.142-1.184l-.013-.017c-.859-1.109-1.594-2.379-2.148-3.742l-.039-.108c-.196-.543-.616-1.863-.227-2.421.111-.157.293-.258.497-.258h.023-.001c.524 0 1.852.932 2.083 2.467.028.235.226.416.467.416h.003z"/></symbol><symbol id="icon-values" viewBox="0 0 27 32"><path d="m0 13.562c.008 6.345 4.364 11.671 10.249 13.157l.094.02 3.219 5.261 3.222-5.261c5.98-1.499 10.339-6.827 10.339-13.173 0-7.49-6.072-13.562-13.562-13.562-7.488 0-13.559 6.069-13.562 13.557zm23.971 0c0 2.784-1.098 5.312-2.883 7.175l.003-.004c-.15-3.955-4.672-2.08-4.771-4.333v-.134c.742-.736 1.021-1.744 1.312-2.896.32-.176.406-.669.461-1.28.067-.736-.115-1.366-.515-1.469-.25-1.28-.47-2.474-1.206-2.899-.288-.822-1.709-.998-2.822-.998-.381 0-.726.019-.979.042-2.013.176-2.714 1.578-3.062 3.84-.413.083-.605.726-.534 1.475.061.64.179 1.149.525 1.28.294 1.136.573 2.131 1.309 2.864v.138c-.102 2.272-4.627.349-4.781 4.336-1.775-1.863-2.867-4.39-2.867-7.173 0-5.747 4.659-10.406 10.406-10.406s10.406 4.659 10.406 10.406v.039-.002z"/></symbol><symbol id="icon-logo1" viewBox="0 0 110 32"><path d="m60.112 17.189c1.636-.622 2.587-1.866 2.489-3.601-.165-2.482-2.229-3.758-6.385-3.562l-1.702.066-.71-.01c-.193.378-.436.701-.724.977l-.001.001c.491.168.586.539.586 1.192v8.185c0 1.08-.13 1.407-1.537 1.407v.851l1.768-.066h2.063l1.834.066v-.851c-1.407 0-1.407-.261-1.407-1.473v-2.553c.327 0 .688-.032 1.015-.066 1.636 2.193 4.584 5.632 8.087 4.943v-.885c-1.084.001-2.458-1.045-5.373-4.622zm-3.733-.559v-5.524c2.161-.419 3.47.917 3.47 2.882.034 1.702-1.507 2.717-3.47 2.652z"/><path d="m15.702 14.938c-1.834-1.016-2.515-1.933-2.096-3.012.263-.753 1.016-1.08 1.866-.949 1.048.066 1.572.327 1.834 1.375h1.016l-.163-2.29c-5.106-1.083-6.94 1.012-6.838 3.172.098 1.801.978 2.816 3.109 3.995 1.702.917 2.063 1.407 2.161 2.358.099 1.08-.72 2.324-2.063 2.226-1.441-.066-2.226-.491-2.455-2.031h-1.083l.131 2.587c4.42 1.899 7.629-.622 7.759-2.882.127-1.965-.524-3.077-3.177-4.55z"/><path d="m31.087 19.783v-6.974c0-1.899-.883-2.882-3.406-2.882-2.859 0-4.682 1.244-5.598 2.423-.419.622-.72 1.734.099 1.768.559.032 2.096-.419 2.096-.851 0-1.277 1.161-2.351 3.027-2.383 1.08 0 1.065.838 1.065 2.546v2.39c-4.518-.098-7.007 1.801-7.105 4.06-.099 2.193 2.39 5.009 7.171 1.537 0 1.118 1.997 2.717 4.911.524l-.491-.72c-1.606 1.048-1.769-.26-1.769-1.439zm-2.718.361c-2.946 2.292-4.387.655-4.387-.622 0-1.636 1.441-2.515 4.387-2.553z"/><path d="m72.173 9.764c-3.372.099-6.549 2.85-6.385 7.007.163 3.667 3.241 6.352 6.876 6.252 3.306-.098 6.515-2.848 6.352-7.007-.163-3.633-3.241-6.318-6.842-6.252zm.419 12.082c-2.619-.066-3.831-2.979-4.053-5.271-.327-2.816.819-5.795 3.765-5.698 2.619.066 3.831 3.012 4.093 5.31.326 2.777-.852 5.753-3.8 5.659z"/><path d="m82.046 13.104v6.09c0 2.26-.197 2.619-1.474 2.619v.885l1.704-.066h1.244l1.702.066v-.885c-1.276 0-1.473-.261-1.473-2.488v-5.534c1.636 2.161 7.334 7.956 8.217 9.003h1.309v-10.019c0-1.407.229-1.834 1.375-1.834v-.88l-1.576.029h-1.276l-1.599-.029v.885c1.178 0 1.375.419 1.375 1.768v5.959c-1.834-2.165-7.105-7.665-7.89-8.611l-1.834.032-1.634-.032v.885c1.568-.003 1.829.389 1.829 2.158z"/><path d="m49.666 11.348c2.682 0 2.974-1.867 2.974-1.867-.593.344-1.291.581-3.388.581h-1.831l.032-2.947c.032-6.581 4.355-5.959 5.31-4.518.524.818 1.67.588 2.226-.032.524-.59.131-1.638-1.473-2.292-1.203-.492-3.706-.436-5.688 1.248-.212-.442-.722-.9-1.575-1.248-2.168-.887-8.522-.003-8.522 8.902 0 .885-.066 10.804-.066 10.804 0 1.677-.72 1.834-2.455 1.801v.917l2.75-.066h9.423l2.947.066v-.917c-2.26.032-2.88-.066-2.88-2.193v-8.24zm-4.666-2.173c-.066.885-.066 10.804-.066 10.804 0 1.465-.559 1.771-1.86 1.801h-.595c-1.775-.008-2.285-.27-2.285-2.197v-8.245h4.374v-1.276h-4.402l.029-2.947c.028-6.375 4.082-5.997 5.2-4.654s.025.029.066.084l.035.05c.033.053.065.099.101.142l-.002-.002c.193.275.373.588.523.918l.015.037c-.692 1.342-1.133 3.133-1.133 5.485z"/><path d="m37.35 9.783h-.253s-.889.654-2.978.654v.911h3.231z"/><path d="m11.953 6.461c.042-.018.094-.038.158-.06.072-.024.131-.071.17-.131l.001-.001c.022-.031.035-.071.035-.113 0-.01-.001-.019-.002-.028v.001c-.011-.043-.046-.076-.09-.084h-.001c-.017-.003-.036-.004-.056-.004s-.039.002-.058.005h.002c-.038.002-.073.013-.103.031l.001-.001-.521.279c-.146.082-.323.167-.506.241l-.032.012c-.102.045-.212.089-.328.14-.083.033-.18.058-.281.069h-.005c.001-.022.003-.044.007-.064v.003c.011-.059.023-.109.039-.157l-.002.009c.015-.049.031-.096.047-.14s.029-.082.043-.115l.091-.26.087-.247c.24-.228.472-.467.69-.71s.443-.524.66-.78c.14-.168.28-.337.419-.499.131-.157.255-.332.364-.516l.01-.019c.027-.049.05-.105.065-.164l.001-.005c.014-.048.022-.103.022-.16 0-.01 0-.02-.001-.03v.001c-.003-.064-.026-.122-.065-.168-.046-.05-.108-.084-.179-.093h-.002c-.023-.007-.05-.011-.078-.011s-.054.004-.08.011l.002-.001-.129.038h-.008c-.167.086-.307.201-.417.341l-.002.003c-.115.14-.222.28-.319.419s-.201.303-.284.45l-.28.442c-.127.217-.254.439-.375.658-.08.14-.158.292-.233.44-.006-.033-.02-.062-.039-.087-.04-.057-.105-.095-.179-.096-.004 0-.008 0-.012 0-.15 0-.294.026-.428.073l.009-.003-.326.096c-.125.037-.232.08-.334.132l.011-.005c-.161.071-.319.15-.47.232-.131.074-.285.144-.446.2l-.021.006c-.019.006-.035.014-.05.024h.001l-.521.279c-.146.082-.323.167-.506.241l-.032.012c-.102.045-.212.089-.328.14-.083.033-.18.058-.281.069h-.005c.001-.022.003-.044.007-.064v.003c.011-.059.023-.109.039-.157l-.003.009c.015-.049.031-.096.048-.14s.029-.082.043-.115l.099-.268q.042-.119.087-.247c.24-.228.472-.467.69-.71s.439-.507.657-.763c.14-.168.28-.337.419-.499.131-.157.255-.332.364-.516l.01-.019c.028-.049.051-.106.066-.166l.001-.005c.014-.048.022-.103.022-.16 0-.01 0-.02-.001-.03v.001c-.003-.064-.027-.123-.066-.168-.046-.05-.108-.084-.179-.093h-.002c-.023-.007-.05-.011-.078-.011s-.054.004-.08.011l.002-.001-.129.038h-.008c-.167.086-.307.201-.417.341l-.002.003c-.115.14-.222.28-.319.419s-.201.305-.291.451l-.268.442c-.127.217-.254.439-.375.658-.08.14-.158.292-.233.44-.006-.033-.02-.062-.039-.087-.041-.059-.107-.096-.183-.096h-.001c-.003 0-.007 0-.011 0-.149 0-.291.025-.424.071l.009-.003-.314.092h-.011c-.125.037-.232.08-.334.132l.011-.005c-.161.071-.319.15-.47.232-.131.074-.285.144-.446.2l-.021.006h-.015c-.03.006-.056.015-.081.025l.003-.001c-.057.023-.106.049-.151.079l.003-.002c-.026.019-.056.034-.088.045l-.002.001h-.01c-.099.05-.222.106-.362.166-.108.049-.247.102-.389.148l-.03.008c-.109.036-.247.073-.388.101l-.024.004c-.066.015-.142.024-.22.024-.034 0-.068-.002-.102-.005h.004c-.025 0-.031-.015-.034-.018s0-.014.02-.052v-.007c.013-.04.034-.074.06-.102l.091-.091c.037-.038.065-.085.079-.138l.001-.002c.009-.022.014-.048.014-.075 0-.073-.037-.138-.094-.176h-.001c-.03-.025-.069-.041-.112-.041-.058 0-.109.028-.141.071-.128.136-.272.253-.431.35l-.009.005c-.041.029-.089.057-.139.083l-.008.004c-.074.041-.157.08-.246.117-.072.032-.157.061-.244.082l-.01.002c-.018.007-.038.01-.06.01-.029 0-.056-.007-.081-.019h.001c-.025-.021-.021-.064.011-.126.053-.099.112-.184.178-.262l-.002.002c.075-.091.154-.177.232-.256s.131-.129.162-.154c.075-.05.14-.092.201-.127.06-.034.13-.063.203-.084l.007-.002.428-.048c.084-.016.156-.06.206-.122l.001-.001c.038-.046.082-.14-.047-.26h-.007c-.056-.028-.122-.045-.193-.045-.031 0-.061.003-.09.009h.003c-.141.017-.265.041-.386.073l.02-.004c-.13.032-.253.068-.368.106s-.197.068-.242.087l-.313.126-.389.182c-.14.057-.263.117-.382.179l-.292.145c-.047.018-.082.059-.089.11v.001c-.001.006-.001.013-.001.019 0 .034.011.066.029.091.024.032.058.056.097.067h.001c.015.005.033.008.051.008.033 0 .064-.01.09-.027h-.001l.377-.186c.14-.068.28-.14.394-.197l.191-.096c-.083.081-.16.168-.231.26l-.004.006c-.073.093-.142.197-.201.307l-.006.012c-.046.077-.076.169-.082.268v.002.001c0 .128.066.24.165.306l.001.001c.084.054.187.085.297.085.015 0 .029-.001.043-.002h-.002c.145-.016.277-.06.393-.128l-.005.003.341-.197.165-.098c-.002.015-.002.033-.002.05 0 .042.005.082.014.121l-.001-.003c.033.107.116.189.22.222l.002.001c.063.024.136.038.212.038.03 0 .06-.002.089-.006h-.003c.114-.015.216-.04.313-.073l-.011.003c.111-.038.203-.078.292-.123l-.012.006c.088-.043.171-.082.247-.115l.335-.148c.11-.049.221-.099.328-.15.024-.013.061-.028.11-.046s.105-.041.157-.063c.03-.013.056-.028.08-.044l-.002.001c.089-.018.168-.051.237-.097l-.003.002c.087-.053.162-.095.225-.127l.036-.014q-.056.066-.106.14c-.068.094-.126.201-.166.317l-.003.009c-.02.05-.032.108-.032.169 0 .05.008.099.023.144l-.001-.003c.049.11.148.191.267.213h.002c.038.01.082.016.127.016s.089-.006.131-.017l-.004.001c.092-.026.172-.062.246-.107l-.004.002c.08-.043.149-.09.214-.142l-.003.002c.064-.054.123-.108.175-.159l.345-.298c-.018.049-.038.105-.057.163-.022.063-.04.138-.05.215l-.001.006c-.003.023-.005.049-.005.075 0 .049.006.096.017.141l-.001-.004c.021.078.066.144.128.189l.001.001c.06.041.134.066.214.066h.001c.081-.001.157-.016.228-.043l-.005.002c.082-.03.15-.061.216-.098l-.008.004q.095-.053.173-.091c.173-.096.351-.193.527-.288s.354-.186.535-.279c.042-.018.094-.038.158-.06.047-.016.087-.04.12-.071.074-.021.139-.05.199-.088l-.003.002c.087-.053.162-.095.225-.127l.036-.014q-.056.066-.106.14c-.071.097-.13.209-.171.329l-.003.009c-.02.05-.032.108-.032.169 0 .05.008.099.023.144l-.001-.003c.049.106.145.184.26.208h.002c.038.01.082.016.127.016s.089-.006.131-.017l-.004.001c.09-.024.169-.057.242-.099l-.005.002c.084-.044.156-.091.224-.145l-.003.002c.064-.054.123-.108.175-.159l.345-.298c-.018.049-.038.105-.057.163-.022.063-.04.138-.05.215l-.001.006c-.003.023-.005.049-.005.075 0 .049.006.096.017.141l-.001-.004c.017.08.061.148.121.197l.001.001c.06.041.134.066.214.066h.001c.081-.001.157-.016.228-.043l-.005.002c.082-.03.15-.061.216-.098l-.008.004q.096-.053.173-.091c.173-.096.351-.193.527-.288s.362-.184.544-.275zm-2.067-.353c-.102.07-.201.14-.296.21-.085.063-.184.129-.285.189l-.016.009-.075.045c-.034.021-.071.043-.112.066-.032.018-.069.033-.109.043l-.003.001c-.022 0-.039 0-.045 0s0-.031 0-.039c.012-.046.026-.085.043-.122l-.002.005c.02-.045.039-.087.06-.126l.042-.08c.076-.117.168-.215.274-.297l.003-.002c.074-.064.158-.121.247-.168l.007-.004c.073-.04.159-.067.25-.075h.003.127.147c.051-.004.099-.015.143-.033l-.003.001.024-.011zm1.245-1.229.18-.316c.115-.184.236-.365.362-.534.137-.184.271-.346.413-.5l-.004.004.183-.211c.037-.044.079-.082.125-.115l.002-.001c-.019.041-.039.075-.06.108l.002-.003c-.035.051-.072.112-.106.175l-.006.011c-.056.092-.116.183-.179.268s-.129.176-.191.263c-.14.19-.3.377-.458.559q-.129.145-.263.291zm-5.101 1.229c-.102.07-.201.14-.296.21-.085.063-.184.129-.285.189l-.016.009-.075.045c-.034.021-.071.043-.112.066-.032.018-.069.033-.109.043l-.003.001c-.022 0-.039 0-.045 0s0-.028 0-.039c.012-.046.026-.085.043-.122l-.002.005c.02-.045.039-.087.06-.126l.042-.08c.077-.114.17-.211.276-.29l.003-.002c.076-.065.162-.123.254-.171l.008-.004c.073-.04.159-.067.25-.075h.003.124.147c.051-.004.099-.015.143-.033l-.003.001.024-.011zm1.245-1.229.18-.317c.115-.184.236-.363.362-.532.137-.184.271-.346.413-.5l-.004.004.183-.211c.037-.044.079-.082.125-.115l.002-.001c-.019.041-.039.075-.06.108l.002-.003c-.035.051-.072.112-.106.175l-.006.011c-.056.092-.116.183-.179.268s-.129.175-.191.263c-.14.19-.3.379-.458.559q-.131.145-.263.291z"/><path d="m21.48 6.473.06-.02c.059-.02.117-.041.171-.063.058-.023.107-.056.147-.098.052-.032.117-.067.183-.098l.013-.006c.088-.041.179-.085.268-.13l.377-.158c.082-.035.184-.071.289-.099l.017-.004c-.108.253-.238.471-.392.669l.005-.007-.074.074c-.033.032-.061.069-.084.109l-.001.002c-.018.03-.028.066-.028.104 0 .013.001.025.003.037v-.001c.017.061.063.108.122.127h.001c.028.017.062.027.099.027.028 0 .054-.006.078-.017h-.001c.05-.021.092-.049.129-.084.122-.089.242-.184.355-.279s.231-.191.347-.279c.103-.076.222-.154.346-.226l.019-.01c.089-.051.194-.098.302-.136l.014-.004c-.008.027-.017.053-.028.078l-.053.14c-.018.04-.038.074-.062.106l.001-.001c-.032.045-.064.092-.096.14-.029.042-.056.09-.079.141l-.002.006c-.013.026-.021.056-.021.089 0 .022.004.044.011.064v-.001c.018.071.082.123.157.123.014 0 .027-.002.039-.005h-.001c.085-.018.16-.051.226-.095l-.002.001c.078-.05.146-.1.209-.154l-.003.002c.064-.054.108-.091.13-.108.165-.115.338-.231.517-.344.157-.105.337-.199.527-.273l.019-.006c.052-.025.123-.057.212-.095.033-.016.072-.026.113-.026.02 0 .04.002.06.007h-.002c.001.008.002.018.002.028 0 .041-.009.079-.026.113l.001-.002c-.031.063-.068.118-.11.167l.001-.001c-.045.054-.091.103-.139.149l-.001.001c-.049.045-.095.09-.138.138l-.001.002c-.043.045-.082.095-.114.149l-.002.004c-.034.053-.06.116-.073.182l-.001.003c-.004.019-.006.04-.006.062 0 .044.008.086.023.125l-.001-.002c.031.071.088.125.159.152l.002.001c.066.03.144.048.226.048s.159-.018.229-.049l-.004.001c.152-.06.279-.113.404-.163l.268-.115c.108-.048.197-.095.283-.146l-.012.007.14-.066c.085-.037.157-.075.225-.117l-.007.004.035-.022c.037-.003.07-.017.097-.037h-.001c.033-.024.071-.047.111-.065l.004-.002h.008l.151-.094.027-.017c.039-.024.08-.048.12-.068 0 .024.003.048.007.071v-.003c.01.053.021.106.035.158.037.144.108.268.204.368.089.09.194.163.311.214l.006.003c.111.049.241.081.376.091h.004c.032.003.07.004.109.004.104 0 .206-.011.304-.031l-.01.002c.358-.097.651-.196.936-.31l-.056.02.479-.211c.043-.018.094-.038.15-.056.068-.022.123-.067.159-.125l.001-.001c.021-.026.033-.059.033-.095 0-.009-.001-.019-.003-.028v.001c-.009-.034-.032-.061-.062-.075h-.001c-.033-.02-.074-.032-.116-.032-.021 0-.042.003-.061.008h.002-.011c-.048.028-.109.058-.17.085l-.013.005c-.067.029-.14.06-.197.092-.112.053-.253.109-.397.158l-.029.008c-.116.04-.265.081-.417.114l-.028.005c-.102.018-.224.032-.347.037h-.006c-.017.001-.037.001-.057.001-.109 0-.215-.016-.314-.045l.008.002c-.115-.033-.214-.087-.299-.159l.001.001c-.067-.061-.117-.142-.139-.233l-.001-.003c.026.002.056.003.086.003.114 0 .224-.015.328-.043l-.009.002c.149-.038.28-.094.399-.167l-.006.004.15-.091c.072-.043.134-.089.191-.141l-.001.001c.054-.049.097-.11.126-.178l.001-.003c.009-.022.014-.047.014-.074 0-.054-.021-.103-.056-.139-.073-.092-.182-.153-.305-.162h-.001c-.049-.006-.105-.01-.163-.01s-.114.004-.169.011l.007-.001c-.189.038-.358.106-.508.199l.006-.004c-.15.09-.273.212-.361.357l-.003.005c-.147.06-.268.12-.385.187l.016-.008c-.116.066-.232.127-.344.183-.048.013-.09.03-.129.052l.003-.002c-.047.025-.086.05-.123.078l.003-.002c-.024.018-.051.036-.079.051l-.003.002-.024.011-.215.099c-.075.035-.158.067-.246.099-.085.04-.193.081-.304.117l-.022.006c-.078.028-.167.045-.26.045-.001 0-.003 0-.004 0 .059-.103.123-.203.19-.299.084-.119.168-.247.252-.382.039-.064.068-.139.082-.22l.001-.004c.005-.027.009-.058.009-.09 0-.048-.007-.095-.021-.139l.001.003c-.024-.074-.074-.134-.138-.171l-.001-.001c-.054-.03-.119-.048-.188-.048-.026 0-.052.003-.077.007h.003c-.168.024-.318.081-.451.164l.005-.003c-.14.084-.27.165-.389.24l-.432.264-.271.165q.02-.042.036-.084c.031-.076.056-.164.069-.256l.001-.006c.038-.193-.047-.27-.127-.3-.047-.019-.101-.031-.157-.031s-.111.011-.16.032l.003-.001c-.099.039-.182.079-.261.124l.01-.005c-.1.061-.184.12-.265.184l.006-.005c-.091.064-.193.14-.303.226l-.207.161c.024-.045.047-.088.074-.129.029-.044.059-.082.091-.118l-.001.001c.044-.05.085-.106.121-.165l.003-.005c.034-.053.057-.116.064-.184v-.002c0-.002 0-.004 0-.005 0-.075-.041-.139-.102-.173h-.001c-.04-.018-.087-.028-.137-.028-.035 0-.069.005-.1.015l.002-.001c-.103.025-.192.056-.277.093l.01-.004c-.089.038-.176.08-.257.122s-.14.07-.186.091l-.442.211c-.14.07-.295.147-.442.231-.048.014-.087.028-.125.044l.006-.003c-.067.029-.14.06-.2.092-.038.021-.081.04-.127.052l-.004.001c-.099.03-.213.05-.331.056h-.003c-.01.001-.021.001-.033.001-.102 0-.197-.03-.277-.081l.002.001c-.03-.018-.056-.038-.08-.06.057-.092.102-.198.129-.311l.001-.007c.007-.026.011-.057.011-.088 0-.101-.042-.192-.11-.256-.031-.023-.068-.04-.109-.047h-.002c-.005-.058-.036-.108-.08-.139h-.001c-.06-.037-.132-.059-.209-.059-.038 0-.075.005-.109.015l.003-.001c-.106.027-.199.064-.286.111l.007-.003-.393.113c-.165.047-.299.095-.43.149l.026-.01-.978.419c-.022.005-.042.013-.06.023l.001-.001-.907.475c.006-.023.009-.049.009-.076s-.003-.053-.01-.078v.002c-.046-.115-.134-.205-.244-.253l-.003-.001c-.043-.023-.094-.04-.147-.049h-.003c-.067-.015-.14-.032-.21-.052-.062-.016-.117-.04-.166-.071l.002.001c-.018-.013-.021-.02-.021-.02s0 0 .01-.015.025-.027.092-.045c.068-.018.127-.04.183-.068l-.005.002c.054-.026.101-.061.14-.102.034-.036.06-.102 0-.208-.029-.035-.068-.063-.111-.078l-.002-.001c-.025-.01-.053-.016-.084-.016-.023 0-.044.003-.065.01h.002c-.146.015-.279.051-.402.107l.008-.003c-.148.061-.295.127-.439.198s-.28.14-.396.208l-.243.14c-.035.017-.063.047-.076.083v.001c-.009.022-.014.047-.014.073 0 .008.001.017.002.025v-.001c.007.038.028.07.058.091.024.017.053.027.085.027.011 0 .021-.001.031-.003h-.001c.093-.008.176-.044.241-.101h-.001c.058-.048.123-.094.191-.135l.008-.004.253-.11.203-.087c-.001.013-.002.027-.002.042s.001.029.002.044v-.002c.019.075.06.138.117.183l.001.001c.066.046.144.078.229.092h.003c.115.025.211.053.305.085l-.018-.006c.069.019.128.057.173.107.027.036-.02.101-.064.148-.039.05-.085.091-.138.124l-.002.001c-.067.043-.143.082-.224.111l-.008.002c-.058.016-.125.026-.193.026-.047 0-.092-.004-.137-.013l.005.001c-.049-.011-.116-.042-.13-.183-.003-.065-.035-.122-.082-.159-.032-.023-.072-.037-.115-.037-.016 0-.031.002-.046.005h.001c-.056.013-.104.042-.139.082-.034.038-.054.088-.054.143 0 .011.001.022.002.033v-.001c.003.137.066.259.164.34l.001.001c.097.091.228.147.371.147h.003c.196 0 .382-.04.551-.112l-.009.003c.171-.071.351-.152.537-.242.154-.084.31-.165.464-.245s.31-.154.463-.224l.148-.061.021-.01c.043-.013.08-.028.116-.046l-.004.002c.041-.02.08-.042.117-.064l.094-.052c.14-.07.279-.14.419-.201.07-.032.14-.063.214-.091l-.021.021c-.073.075-.141.155-.203.24l-.004.006c-.067.089-.124.191-.166.3l-.003.009c-.024.059-.039.129-.039.201 0 .043.005.084.014.124l-.001-.004c.04.123.133.218.252.259l.003.001c.08.036.173.057.271.057.029 0 .057-.002.084-.005h-.003c.128-.014.246-.048.354-.098l-.007.003c.119-.055.221-.116.316-.186l-.005.003c.098-.072.183-.142.265-.217l-.002.002.151-.204c.065.056.143.1.229.126l.005.001c.092.028.198.045.308.045h.004c.114-.001.224-.013.331-.034l-.011.002c.12-.022.224-.049.325-.083l-.016.005zm6.987-.71c.023-.036.048-.068.076-.097.052-.055.112-.102.179-.138l.004-.002c.065-.034.14-.059.22-.071h.004c.024-.004.051-.007.079-.007s.055.002.082.007h-.003c-.087.077-.187.143-.294.196l-.008.004c-.098.051-.211.089-.331.107l-.006.001zm-8.437.386c-.028.047-.059.087-.095.123l-.14.14c-.106.097-.236.17-.381.208l-.006.001c-.082.021-.175.033-.272.033-.065 0-.128-.005-.19-.016l.007.001c-.026-.001-.05-.01-.069-.025s-.013-.013-.008-.038c.014-.074.044-.14.085-.197l-.001.001c.054-.08.11-.15.172-.214l-.001.001.14-.14c.108-.09.231-.167.364-.226l.01-.004c.109-.049.235-.085.368-.101l.007-.001c-.021.051-.033.109-.033.171 0 .008 0 .016.001.023v-.001c.001.094.016.183.044.268l-.002-.006z"/><path d="m77.102 27.907c-.074.014-.14.034-.203.062l.005-.002c-.067.029-.14.06-.198.092-.037.021-.08.039-.126.052l-.004.001c-.098.03-.212.05-.329.056h-.003c-.009.001-.02.001-.031.001-.102 0-.196-.029-.276-.08l.002.001c-.029-.018-.055-.037-.079-.059.057-.091.102-.197.129-.31l.001-.007c.007-.026.011-.055.011-.086 0-.1-.042-.191-.11-.255-.031-.023-.067-.039-.108-.046h-.001c-.005-.058-.036-.108-.08-.139h-.001c-.059-.037-.13-.058-.207-.058-.038 0-.075.005-.11.016l.003-.001c-.106.027-.199.064-.286.111l.007-.003-.39.113c-.165.047-.298.095-.428.149l.026-.01-.995.43h-.011c-.03.006-.056.012-.081.021l.004-.001c-.14.063-.292.12-.436.171l-.437.152c-.119.034-.254.073-.405.119-.074.026-.159.04-.248.04-.049 0-.097-.005-.144-.013l.005.001c-.001-.007-.001-.015-.001-.024s0-.017.001-.025v.001c.013-.066.029-.14.052-.215s.046-.157.071-.232c.014-.05.032-.094.053-.135l-.002.004v-.007c.034-.073.064-.14.095-.204.034-.071.069-.131.109-.187l-.003.004c.088-.068.173-.14.253-.207s.158-.14.231-.203l.119-.025c.303-.038.619-.087.936-.14.357-.064.668-.148.968-.254l-.043.013c.066-.022.117-.073.139-.138v-.002c.008-.021.012-.045.012-.07 0-.051-.018-.098-.049-.135-.031-.05-.085-.084-.148-.084-.011 0-.021.001-.031.003h.001c-.053.012-.1.027-.145.047l.005-.002-.941.279-.402.095c.071-.077.14-.157.21-.235.105-.122.207-.247.302-.373.075-.094.168-.201.279-.317.102-.105.178-.236.219-.381l.002-.006c.008-.023.013-.049.013-.076 0-.047-.014-.091-.038-.128l.001.001c-.037-.06-.103-.099-.177-.099-.002 0-.005 0-.007 0-.07.009-.134.031-.189.065l.002-.001-.158.096c-.274.218-.509.468-.704.749l-.008.011c-.201.288-.391.569-.559.838-.105.011-.211.018-.316.021s-.226 0-.342 0c-.002 0-.005 0-.008 0-.074 0-.135.052-.15.121v.001c-.005.015-.008.032-.008.05 0 .059.033.111.081.138h.001c.059.029.129.046.203.046.038 0 .074-.004.109-.013l-.003.001c.075-.013.148-.022.217-.029l-.081.14c-.169.126-.363.256-.563.375l-.031.017c-.17.102-.38.213-.596.313l-.044.018c-.039.021-.068.056-.083.097v.001c-.006.015-.009.033-.009.051 0 .025.006.048.016.069v-.001c.017.035.045.062.079.079h.001c.018.008.039.013.061.013.029 0 .057-.008.08-.023h-.001c.302-.144.551-.284.791-.437l-.03.018c-.053.103-.102.203-.14.296-.056.113-.088.246-.088.387 0 .026.001.051.003.076v-.003c.007.144.107.262.241.297h.002c.051.011.109.017.169.017.081 0 .159-.011.232-.033l-.006.001c.165-.042.304-.09.439-.147l-.02.007.319-.133.681-.249c.044-.019.101-.04.16-.057l.012-.003.036-.014h.029c.046-.013.085-.029.122-.048l-.004.002c.041-.02.08-.042.117-.063l.092-.05c.14-.068.279-.14.419-.2.07-.032.14-.061.214-.091l-.021.021c-.072.074-.14.154-.201.238l-.004.006c-.067.089-.124.19-.166.299l-.003.009c-.024.059-.039.128-.039.2 0 .042.005.084.014.123l-.001-.004c.028.106.096.194.187.246l.002.001c.079.035.171.056.267.056h.002c.012.001.026.001.04.001s.028 0 .042-.001h-.002c.127-.015.244-.048.351-.098l-.007.003c.118-.055.219-.115.314-.185l-.005.003c.097-.071.182-.142.264-.216l-.002.002.176-.184c.065.056.142.099.228.125l.004.001c.092.028.198.045.307.045h.003c.113 0 .223-.011.33-.031l-.011.002c.12-.022.223-.049.323-.083l-.016.005.055-.018.06-.02c.059-.02.116-.041.171-.063.055-.023.101-.056.139-.098.025-.027.04-.064.04-.103 0-.03-.009-.058-.024-.082v.001c-.022-.05-.071-.085-.129-.085-.009 0-.019.001-.027.003h.001zm-1.669.116c-.028.047-.059.087-.095.123l-.14.14c-.106.096-.235.169-.378.207l-.006.001c-.081.021-.175.033-.271.033-.064 0-.127-.005-.189-.016l.007.001c-.026-.001-.05-.01-.069-.025s-.013-.013-.008-.038c.014-.074.043-.139.083-.196l-.001.001c.054-.079.11-.149.171-.213l-.001.001.14-.14c.107-.09.228-.167.359-.228l.01-.004c.109-.048.235-.084.367-.1l.006-.001c-.021.05-.033.109-.033.17 0 .008 0 .015.001.022v-.001c.002.094.019.184.048.267l-.002-.006z"/><path d="m95.748 27.9c-.019-.006-.04-.009-.062-.009s-.044.003-.064.01h.001c-.046.014-.087.032-.124.054l.002-.001c-.022.014-.047.027-.074.038l-.003.001c-.082.038-.165.078-.246.12s-.155.077-.229.108c-.225.088-.408.151-.544.189-.172.047-.201.017-.201.015-.034-.031-.055-.075-.055-.124 0-.006 0-.011.001-.017v.001c.004-.082.02-.159.046-.23l-.002.006c.033-.093.067-.171.107-.246l-.005.01c.041-.078.077-.14.108-.191.038-.047.061-.108.061-.174 0-.038-.008-.074-.021-.107l.001.002c-.031-.061-.103-.122-.279-.063h-.01c-.108.066-.234.13-.366.185l-.018.007c-.099.045-.214.071-.335.071-.022 0-.043-.001-.064-.002h.003c-.009.001-.019.001-.029.001s-.02 0-.03-.001h.001c.054-.04.1-.086.138-.138l.001-.002c.037-.047.06-.107.06-.173 0-.033-.006-.064-.016-.093l.001.002c-.031-.092-.112-.158-.21-.166h-.001c-.008-.001-.017-.001-.027-.001-.14 0-.265.067-.343.172l-.001.001c-.077.089-.123.206-.123.334v.013-.001c-.14.081-.279.157-.397.222l-.349.186c-.019.005-.036.012-.051.02l.001-.001c-.064.034-.119.06-.163.08-.207.109-.456.217-.713.309l-.042.013-.247.071c-.03.011-.065.018-.102.018s-.072-.006-.104-.018l.002.001c-.006-.023-.009-.049-.009-.076 0-.04.007-.079.021-.115l-.001.002c.023-.077.052-.143.089-.206l-.002.004c.035-.061.07-.114.108-.164l-.002.003c.042-.053.074-.116.09-.185l.001-.003c.004-.014.006-.03.006-.047 0-.074-.039-.139-.098-.174h-.001c-.032-.023-.072-.037-.115-.037s-.083.014-.116.037h.001c-.131.101-.279.203-.444.302-.243.149-.538.307-.842.449l-.058.024c-.096.039-.21.087-.335.14-.085.041-.183.069-.287.079h-.004c.014-.107.057-.203.121-.28l-.001.001c.09-.113.182-.214.279-.31l.001-.001c.024-.024.061-.057.11-.096.054-.044.102-.09.147-.139l.001-.001c.043-.045.079-.096.107-.153l.002-.004c.011-.024.018-.052.018-.082 0-.043-.013-.082-.036-.114v.001c-.035-.055-.095-.09-.164-.09-.019 0-.038.003-.055.008h.001c-.094.022-.176.055-.252.098l.005-.003c-.098.053-.179.103-.257.157l.01-.006c-.048.034-.103.069-.16.1l-.009.005c-.159.07-.32.14-.478.215-.13.062-.289.124-.453.176l-.028.007-.024.011c-.047.014-.085.028-.122.044l.006-.003c-.067.029-.14.06-.198.092-.037.021-.08.039-.126.052l-.004.001c-.098.03-.212.05-.329.056h-.003c-.009.001-.02.001-.031.001-.102 0-.196-.029-.276-.08l.002.001c-.029-.018-.055-.037-.079-.059.057-.091.102-.197.129-.31l.001-.007c.007-.026.011-.055.011-.086 0-.1-.042-.191-.11-.255-.031-.023-.067-.039-.108-.046h-.001c-.005-.058-.036-.108-.08-.139h-.001c-.059-.037-.13-.058-.207-.058-.038 0-.075.005-.11.016l.003-.001c-.106.027-.199.064-.286.111l.007-.003-.39.113c-.165.047-.298.095-.428.149l.026-.01-.995.43c-.012.006-.023.013-.032.021-.085.043-.156.084-.223.129l.008-.005c-.143.096-.266.188-.383.286l.007-.006c-.129.103-.253.208-.369.312s-.217.194-.306.279-.147.14-.172.162q-.198.189-.382.395l.488-.887c.046-.071.088-.14.124-.211.044-.079.087-.146.134-.209l-.004.005c.043-.076.083-.138.126-.198l-.005.007c.048-.066.086-.143.11-.225l.001-.005v-.007c.002-.012.004-.027.004-.041 0-.046-.014-.089-.038-.124l.001.001c-.029-.038-.072-.064-.121-.071h-.001c-.011-.002-.024-.003-.038-.003-.041 0-.08.009-.115.026l.002-.001c-.047.019-.086.045-.12.077-.104.104-.213.203-.328.296l-.008.006c-.117.095-.243.187-.373.279h-.007c-.031.025-.066.05-.102.072l-.004.002c-.061.041-.131.081-.207.122s-.14.074-.207.103c-.021.012-.046.019-.072.021h-.001c-.011-.009-.019-.023-.019-.039 0-.002 0-.005.001-.007.001-.042.007-.081.018-.119l-.001.003c.014-.052.029-.095.047-.138l-.002.006c.018-.043.036-.079.057-.113l-.002.004c.089-.181.191-.337.31-.479l-.003.003c.046-.051.095-.097.148-.138l.003-.002c.06-.046.11-.102.148-.166l.001-.003c.03-.034.048-.079.048-.129 0-.045-.015-.086-.04-.119-.038-.061-.105-.101-.181-.101-.015 0-.03.002-.044.005h.001c-.145.037-.272.099-.383.181l.003-.002c-.097.07-.208.139-.323.2l-.015.007c-.355.19-.722.379-1.093.559-.057.016-.099.067-.102.128 0 .005-.001.01-.001.015 0 .056.03.106.074.134h.001c.027.016.06.025.095.025s.068-.009.096-.026h-.001c.045-.025.087-.052.124-.077.105-.056.214-.112.321-.165s.218-.108.321-.157l.335-.14c-.049.082-.098.166-.14.253-.065.114-.121.245-.163.383l-.003.014c-.023.072-.037.155-.037.241 0 .039.003.077.008.114l-.001-.004c.02.115.104.206.213.237h.002c.05.026.11.042.174.042.032 0 .063-.004.093-.011l-.003.001c.094-.024.177-.06.252-.108l-.003.002c.085-.054.158-.108.227-.168l-.002.002.19-.166.242-.184-.041.081c-.045.085-.087.175-.124.263-.163.334-.333.664-.5.978s-.342.64-.52.963c-.092.172-.179.327-.261.477l-.261.465-.08.117c-.022.031-.034.069-.034.11 0 .025.005.05.014.072v-.001c.016.071.07.127.138.146h.001c.023.008.05.014.078.014.047 0 .09-.014.127-.038l-.001.001.008-.007c.036-.037.065-.08.086-.127l.001-.003c.019-.045.04-.083.064-.119l-.002.003c.063-.126.13-.254.2-.38l.208-.379c.19-.303.395-.602.614-.889.225-.295.454-.557.699-.802.126-.133.259-.259.393-.373s.279-.229.419-.337c.044-.029.095-.06.148-.087l.009-.004c.098-.053.179-.103.257-.157l-.009.006c.039-.027.077-.055.112-.082.042-.013.077-.028.111-.045l-.004.002c.041-.02.08-.042.117-.063l.092-.05c.14-.068.279-.14.419-.2q.105-.047.214-.091l-.021.021c-.072.074-.14.154-.201.238l-.004.006c-.067.089-.124.19-.166.299l-.003.009c-.024.059-.039.128-.039.2 0 .042.005.084.014.123l-.001-.004c.039.122.132.217.25.258l.003.001c.08.036.173.056.27.056.028 0 .055-.002.082-.005h-.003c.127-.015.244-.048.351-.098l-.007.003c.118-.054.219-.115.314-.185l-.005.003c.097-.071.182-.142.264-.216l-.002.002.176-.184c.065.056.142.099.228.125l.004.001c.092.028.198.045.307.045h.003c.113 0 .223-.011.33-.031l-.011.002c.12-.022.223-.049.323-.083l-.016.005.057-.02.059-.02c.059-.02.116-.041.171-.063.036-.015.068-.033.096-.054l-.001.001c.089-.027.164-.056.236-.09l-.011.005c.115-.05.302-.124.559-.218l.059-.027q-.057.081-.11.165c-.06.09-.116.194-.162.302l-.005.012c-.035.079-.056.171-.056.268v.012-.001c.002.092.065.169.15.191h.001c.052.02.112.032.174.032.043 0 .085-.006.124-.016l-.003.001c.122-.028.229-.065.33-.112l-.01.004c.106-.049.208-.101.305-.155l.246-.14c.165-.07.327-.147.484-.231.119-.063.24-.124.363-.183l-.095.228c-.022.061-.035.131-.035.204 0 .036.003.071.009.106l-.001-.004c.021.12.113.214.232.236h.002c.053.013.113.02.175.02.121 0 .236-.028.338-.078l-.004.002c.159-.073.307-.14.439-.196l.668-.313c.039-.003.075-.018.104-.04h-.001c.035-.026.075-.048.118-.064l.004-.001h.008l.177-.106c.074-.045.14-.087.212-.123l.231-.124c.062.062.146.103.239.11h.001c.051.006.11.009.17.009s.119-.003.177-.009l-.007.001c.122-.01.234-.029.342-.058l-.014.003.116-.029-.057.236c-.013.05-.027.103-.042.155-.014.044-.027.101-.038.158l-.001.009c-.004.026-.006.057-.006.088s.002.062.007.091v-.003c.007.065.031.123.066.172l-.001-.001c.059.085.156.14.266.14h.014-.001c.103-.021.194-.055.278-.1l-.005.003c.128-.043.236-.091.339-.146l-.012.006.261-.14.397-.179.084-.028c.045-.016.084-.033.121-.054l-.004.002c.04-.022.074-.046.105-.073l-.001.001c.036-.029.059-.073.06-.123.003-.089-.024-.138-.074-.155zm-9.856.123c-.028.047-.059.087-.095.123l-.14.14c-.106.096-.235.169-.378.207l-.006.001c-.081.021-.175.033-.271.033-.064 0-.127-.005-.189-.016l.007.001c-.026-.001-.05-.01-.069-.025s-.013-.013-.008-.038c.014-.074.043-.139.083-.196l-.001.001c.054-.079.11-.149.171-.213l-.001.001.14-.14c.108-.09.231-.167.363-.227l.01-.004c.109-.048.235-.084.367-.1l.006-.001c-.021.05-.033.109-.033.17 0 .008 0 .015.001.023v-.001c.001.093.016.182.044.266l-.002-.006z"/><path d="m103.333 25.806c.036.028.081.046.131.047.049-.001.093-.019.127-.048.058-.044.103-.103.13-.171l.001-.003c.023-.055.062-.099.112-.128l.001-.001c.144-.099.322-.161.513-.168h.002c.033-.002.072-.003.111-.003.158 0 .313.016.462.047l-.015-.003c.01.002.021.004.032.004.037 0 .071-.015.097-.039.032-.027.055-.065.064-.108v-.001c.001-.007.002-.015.002-.024 0-.063-.042-.116-.099-.134h-.001c-.042-.012-.09-.02-.139-.021h-.001c-.145-.021-.313-.034-.484-.034-.07 0-.14.002-.209.006h.01c-.084.013-.173.031-.267.053-.104.025-.194.057-.28.097l.009-.004c-.091.042-.168.095-.237.157l.001-.001c-.071.064-.126.143-.161.232l-.001.004c-.007.019-.01.041-.01.064 0 .074.039.138.098.174h.001z"/><path d="m110.403 28.01c-.009-.033-.032-.06-.062-.074h-.001c-.033-.019-.072-.03-.114-.03-.022 0-.042.003-.062.009h.002-.011c-.048.027-.108.057-.169.083l-.013.005c-.067.029-.14.06-.197.091-.109.052-.248.108-.39.156l-.029.009c-.115.04-.263.08-.414.112l-.028.005c-.102.018-.223.032-.346.038h-.006c-.018.001-.038.002-.059.002-.107 0-.211-.015-.309-.044l.008.002c-.114-.032-.213-.086-.297-.157l.001.001c-.067-.061-.117-.141-.139-.232l-.001-.003c.031.003.068.004.105.004.105 0 .207-.013.305-.037l-.009.002c.148-.038.278-.094.396-.167l-.006.003.148-.091c.071-.043.133-.089.19-.141l-.001.001c.054-.049.097-.109.126-.177l.001-.003c.009-.022.014-.047.014-.073 0-.054-.021-.102-.056-.138-.073-.091-.181-.152-.303-.161h-.001c-.049-.006-.105-.01-.162-.01s-.113.004-.169.011l.007-.001c-.19.036-.359.103-.51.197l.007-.004c-.15.09-.272.211-.359.356l-.003.005c-.146.06-.267.119-.383.186l.016-.008c-.112.063-.224.123-.333.179-.058.018-.109.045-.154.078l.001-.001c-.055.041-.117.078-.183.11l-.007.003c-.08.031-.162.06-.246.089-.066.024-.15.048-.236.067l-.014.003c-.024.006-.051.009-.079.009-.082 0-.159-.027-.22-.074l.001.001c-.061-.072-.098-.167-.098-.27 0-.022.002-.043.005-.064v.002l.372-.707c.067-.061.14-.123.211-.183s.151-.131.221-.203c.221-.189.421-.384.609-.59l.005-.005c.184-.201.357-.42.515-.65l.013-.02c.048-.061.094-.129.135-.201l.005-.009c.055-.083.102-.178.137-.279l.003-.009c.016-.042.025-.09.025-.14s-.009-.098-.026-.143l.001.003c-.036-.089-.14-.14-.289-.14-.002 0-.005 0-.008 0-.135 0-.26.04-.365.109l.002-.002c-.111.074-.207.159-.291.255l-.001.002c-.083.095-.161.2-.229.311l-.006.01c-.067.112-.127.217-.177.31-.14.222-.27.454-.388.69s-.233.46-.352.686c-.238.18-.486.354-.742.516-.214.139-.465.279-.726.402l-.04.017-.05.011c-.108.031-.201.067-.289.112l.009-.004c-.098.047-.194.098-.279.15-.047.029-.104.06-.163.088l-.011.005c-.106.038-.226.075-.355.113-.079.026-.17.041-.264.041-.018 0-.036-.001-.054-.002h.002c-.021-.038-.033-.084-.033-.132 0-.037.007-.072.02-.104l-.001.002c.033-.118.07-.217.113-.313l-.005.014c.021-.06.05-.113.085-.159l-.001.002c.041-.054.072-.118.089-.188l.001-.004c.032-.172-.05-.221-.103-.233-.038-.009-.081-.014-.126-.014s-.088.005-.13.015l.004-.001c-.107.024-.201.054-.29.092l.011-.004c-.094.039-.152.064-.179.077l-.941.451c-.024.007-.045.016-.065.027l.002-.001c-.049.028-.105.053-.164.07l-.005.001h-.007c-.177.075-.359.14-.541.208-.152.055-.339.107-.531.146l-.028.005h-.013c-.02.006-.044.009-.068.01l-.14.014-.14.021c-.005-.03-.007-.064-.007-.099s.003-.069.008-.103v.004c.014-.105.037-.2.067-.29l-.003.011c.035-.106.072-.194.113-.279l-.006.013c.039-.081.074-.159.105-.233.373-.277.703-.562 1.01-.869.308-.308.59-.642.843-.999l.016-.024c.031-.043.073-.095.122-.154.046-.057.092-.121.135-.187l.005-.009c.042-.061.078-.131.104-.206l.002-.006c.013-.035.021-.076.021-.119s-.008-.083-.021-.121l.001.002c-.025-.101-.115-.175-.221-.175-.015 0-.03.001-.044.004h.001c-.104.014-.198.044-.284.089l.005-.002c-.155.089-.288.2-.398.329l-.002.002c-.11.13-.217.261-.312.389s-.228.298-.335.446-.219.302-.324.443c-.102.159-.208.323-.314.486-.094.141-.192.307-.28.479l-.014.029c-.179.123-.361.239-.539.344-.153.092-.34.191-.532.279l-.038.016c-.047.018-.084.056-.099.104v.001c-.002.007-.002.016-.002.025 0 .032.012.062.032.084.036.052.096.086.163.086.015 0 .03-.002.045-.005h-.001.013c.276-.135.502-.263.72-.401l-.031.018c-.034.08-.072.185-.104.292l-.006.023c-.024.068-.043.148-.054.231l-.001.006c-.002.016-.002.035-.002.055 0 .066.011.129.03.188l-.001-.004c.026.078.075.142.139.186l.001.001c.055.036.123.058.195.058.024 0 .047-.002.07-.007h-.002c.12-.008.232-.035.335-.078l-.007.003c.102-.041.207-.081.313-.119l1.11-.411c.031-.014.057-.028.082-.045l-.002.001h.021c.113-.063.226-.12.341-.171.107-.053.241-.109.379-.157l.027-.008c.109-.038.221-.078.335-.122-.028.089-.055.183-.08.279-.033.118-.053.253-.055.393v.001.021c0 .11.032.213.087.3l-.001-.002c.056.073.144.119.242.119.03 0 .058-.004.085-.012l-.002.001c.171-.028.325-.077.468-.144l-.011.005c.14-.067.288-.14.419-.205.024-.013.081-.035.168-.07s.179-.074.266-.116c.054-.025.1-.051.144-.079l-.004.003h.012c.035 0 .068-.009.097-.025l-.001.001.14-.067c.122-.064.242-.131.361-.201l.351-.212.235-.162-.081.161c-.172.091-.319.198-.451.321l.001-.001c-.149.139-.286.285-.413.441l-.006.008c-.121.145-.234.306-.334.476l-.009.017c-.08.131-.152.283-.21.442l-.006.018-.047.162c-.016.052-.033.119-.047.188l-.002.013c-.012.062-.019.133-.02.205v.009c0 .065.017.126.046.179l-.001-.002c.052.095.112.12.162.12.022 0 .043-.005.063-.013h-.001c.082-.037.151-.09.205-.156l.001-.001c.06-.07.118-.146.171-.226l.005-.008c.057-.087.092-.14.11-.173.14-.235.289-.475.419-.713.123-.214.243-.435.359-.658.07.094.165.165.275.206l.004.001c.065.017.139.027.215.027.096 0 .189-.015.276-.044l-.006.002c.161-.049.31-.098.443-.15l.447-.21c.028-.012.051-.029.068-.051.018-.012.039-.023.061-.032l.003-.001h.008l.148-.092.028-.017c.039-.024.078-.046.119-.067-.001.01-.001.022-.001.034s.001.024.002.036v-.002c.01.053.021.106.035.157.037.144.108.267.204.366.088.089.193.162.309.213l.006.003c.111.048.24.08.375.089h.004c.032.002.069.004.107.004.104 0 .205-.011.302-.031l-.01.002c.356-.096.648-.195.932-.309l-.055.02.477-.21c.042-.018.092-.038.148-.056.067-.022.123-.066.159-.123l.001-.001c.026-.027.042-.064.042-.105 0-.008-.001-.016-.002-.024v.001zm-2.563-.373c.023-.036.048-.067.076-.095.052-.055.112-.102.179-.138l.004-.002c.065-.034.14-.059.22-.071h.004c.024-.004.051-.007.078-.007s.055.002.081.007h-.003c-.087.076-.186.142-.292.195l-.008.004c-.099.052-.214.09-.335.107l-.006.001zm-.496-2.557c-.01.035-.022.064-.035.092l.002-.004c-.029.061-.059.114-.093.163l.002-.004c-.112.181-.23.337-.36.482l.003-.003c-.117.148-.234.28-.359.405l-.157.154.14-.246c.088-.14.183-.289.279-.426.104-.146.211-.275.326-.395l-.001.001c.05-.05.106-.102.165-.155.026-.023.054-.044.084-.063l.003-.001zm-7.143 1.647.027-.042c.063-.098.13-.198.198-.298.127-.172.256-.34.382-.5.132-.168.265-.317.407-.458l.194-.19c.033-.032.068-.061.105-.089l.003-.002c-.018.031-.037.07-.054.11l-.003.009c-.102.169-.208.315-.325.451l.004-.004c-.255.331-.522.625-.811.896l-.004.004zm4.673 1.772c-.101.172-.207.344-.316.513-.131.202-.26.375-.399.54l.006-.008c.055-.224.152-.42.282-.589l-.003.004c.129-.172.269-.322.424-.457l.004-.003z"/></symbol></defs></svg>