<svg style="position: absolute; width: 0; height: 0; overflow: hidden;" version="1.1" xmlns="http://www.w3.org/2000/svg" xmlns:xlink="http://www.w3.org/1999/xlink">
<defs>
<symbol id="icon-culture" viewBox="0 0 37 32">
<title>culture</title>
<path d="M36.316 11.92c0.030-0.13 0.057-0.259 0.080-0.381 0.075-0.404 0.118-0.869 0.118-1.345 0-0 0-0 0-0v0c0-0.011 0-0.024 0-0.037 0-4.208-3.411-7.619-7.619-7.619-0.694 0-1.365 0.093-2.004 0.266l0.053-0.012c-1.787-1.712-4.21-2.772-6.88-2.792l-0.004-0c-0.009-0-0.019-0-0.029-0-2.719 0-5.18 1.105-6.957 2.891l-0 0q-0.331 0.331-0.629 0.693c-1.141-0.673-2.514-1.071-3.979-1.071-4.378 0-7.928 3.549-7.928 7.928 0 0.437 0.035 0.866 0.104 1.284l-0.006-0.046c-0.399 1.415-0.631 3.041-0.636 4.721v0.003c0 7.082 4.69 12.75 12.24 14.796 1.833 0.508 3.938 0.8 6.111 0.8 0.035 0 0.069-0 0.104-0l-0.005 0c0.029 0 0.063 0 0.098 0 2.173 0 4.279-0.292 6.278-0.839l-0.167 0.039c7.55-2.046 12.24-7.718 12.24-14.796-0.009-1.597-0.221-3.141-0.612-4.612l0.029 0.128zM34.030 16.404c0 2.457-1.65 7.261-5.189 9.775-4.004 2.838-10.343 2.968-10.404 2.968-0.028 0-0.061 0-0.095 0-1.906 0-3.752-0.255-5.507-0.731l0.147 0.034c-9.855-3.006-10.13-11.954-10.13-12.046 0.002-0.774 0.065-1.531 0.182-2.27l-0.011 0.083c4.358 2.423 9.787 3.745 15.425 3.745s11.067-1.326 15.425-3.745c0.107 0.656 0.169 1.413 0.171 2.184v0.003zM10.183 9.878q0 0.171 0 0.347l-0.381 0.19c-0.954 0.492-2.063 0.905-3.225 1.18l-0.1 0.020c-0.438 0.107-0.944 0.173-1.464 0.183l-0.007 0c-0.009 0-0.019 0-0.030 0-0.186 0-0.368-0.018-0.544-0.053l0.018 0.003c-0.343-0.19-0.678-0.381-1.006-0.59-0.029-0.207-0.046-0.445-0.046-0.688 0-0.005 0-0.009 0-0.014v0.001c0-0.003 0-0.007 0-0.011 0-2.805 2.274-5.078 5.078-5.078 0.914 0 1.772 0.242 2.513 0.664l-0.025-0.013c-0.494 1.13-0.781 2.446-0.781 3.829 0 0.010 0 0.021 0 0.031v-0.002zM20.061 2.853c3.88 0 7.025 3.145 7.025 7.025v0c0 0.053 0 0.107 0 0.156l-0.091 0.107c-0.116 0.168-0.282 0.294-0.477 0.356l-0.006 0.002h-0.057c-0.198-0.024-0.375-0.101-0.52-0.215l0.002 0.002c-0.823-0.609-1.846-0.992-2.957-1.040l-0.011-0c-0.001 0-0.002 0-0.003 0-0.149 0-0.297 0.008-0.442 0.024l0.018-0.002c-1.002 0.11-1.943 0.59-3.048 1.554-0.32 0.326-0.737 0.557-1.205 0.645l-0.014 0.002h-0.065c-0.421-0.037-0.793-0.224-1.066-0.506l-0-0c-1.307-1.181-2.446-1.71-3.695-1.71h-0.381c0.331-3.601 3.336-6.399 6.994-6.4h0zM33.65 10.51c-0.307-0.213-0.576-0.438-0.823-0.686l-0-0c-0.914-0.884-1.867-1.333-2.827-1.333h-0.156c-0.166-1.156-0.508-2.199-1.001-3.152l0.026 0.055c0.001 0 0.002 0 0.004 0 2.645 0 4.789 2.144 4.789 4.789 0 0.001 0 0.003 0 0.004v-0q0 0.16-0.011 0.32zM13.432 12.103v0c0.335 0 0.842 0.11 1.794 0.971 0.766 0.757 1.81 1.236 2.965 1.268l0.006 0h0.293c1.127-0.132 2.119-0.622 2.882-1.35l-0.002 0.002c0.629-0.556 1.105-0.83 1.486-0.872h0.11c0.539 0.062 1.021 0.266 1.42 0.573l-0.007-0.005c0.58 0.403 1.296 0.649 2.069 0.663l0.003 0c0.17-0.001 0.336-0.015 0.498-0.041l-0.018 0.002c0.921-0.163 1.705-0.655 2.241-1.348l0.006-0.008c0.461-0.556 0.724-0.613 0.792-0.617v0c0.091 0 0.381 0.042 0.872 0.533 0.145 0.141 0.309 0.293 0.488 0.45-3.703 1.761-8.046 2.79-12.63 2.79-0.091 0-0.181-0-0.272-0.001l0.014 0c-0.031 0-0.067 0-0.104 0-3.251 0-6.388-0.493-9.338-1.408l0.223 0.060c0.748-0.289 1.348-0.562 1.931-0.863l-0.11 0.052c0.979-0.484 1.771-0.853 2.343-0.865z"></path>
</symbol>
<symbol id="icon-arrow" viewBox="0 0 32 32">
<title>arrow</title>
<path fill="#ffdc39" style="fill: var(--color1, #ffdc39)" d="M16 32c-8.837 0-16-7.163-16-16s7.163-16 16-16c8.837 0 16 7.163 16 16v0c-0.011 8.832-7.168 15.989-15.999 16h-0.001zM16 0.831c-8.377 0-15.169 6.791-15.169 15.169s6.791 15.169 15.169 15.169c8.377 0 15.169-6.791 15.169-15.169v0c-0.009-8.374-6.795-15.159-15.168-15.169h-0.001z"></path>
<path fill="#ffdc39" style="fill: var(--color1, #ffdc39)" d="M16 27.314c-0.137-0.004-0.267-0.025-0.391-0.063l0.010 0.003-0.108-0.027h-0.029c-0.292-0.064-0.551-0.172-0.783-0.318l0.010 0.006c-0.066-0.042-0.135-0.085-0.208-0.133-0.016-0.011-0.034-0.022-0.054-0.032l-0.003-0.001c-0.087-0.046-0.163-0.101-0.229-0.164l0 0-7.776-7.798c-0.539-0.463-0.878-1.145-0.878-1.907 0-1.386 1.124-2.51 2.51-2.51 0.758 0 1.437 0.336 1.898 0.867l0.003 0.003 3.516 3.505v-11.512c0-1.386 1.124-2.51 2.51-2.51s2.51 1.124 2.51 2.51v0 11.512l3.516-3.505c0.436-0.375 1.007-0.603 1.632-0.603 1.386 0 2.51 1.124 2.51 2.51 0 0.628-0.231 1.203-0.612 1.643l0.003-0.003-7.792 7.792c-0.066 0.064-0.141 0.118-0.223 0.162l-0.005 0.003c-0.020 0.010-0.037 0.021-0.053 0.032l0.001-0.001c-0.069 0.050-0.135 0.093-0.208 0.137-0.221 0.139-0.478 0.246-0.753 0.307l-0.016 0.003h-0.027l-0.112 0.027c-0.109 0.036-0.235 0.060-0.366 0.066l-0.004 0zM8.208 15.335c-0.927 0.001-1.678 0.752-1.678 1.679 0 0.463 0.188 0.883 0.491 1.186l7.792 7.792c0.013 0.009 0.029 0.018 0.045 0.026l0.003 0.001c0.056 0.031 0.104 0.062 0.149 0.096l-0.003-0.002c0.042 0.029 0.087 0.060 0.133 0.087 0.147 0.093 0.319 0.165 0.502 0.206l0.011 0.002-0.060 0.416 0.081-0.416 0.154 0.037c0.051 0.022 0.11 0.034 0.171 0.034s0.121-0.013 0.174-0.035l-0.003 0.001 0.154-0.037 0.108 0.403-0.085-0.416c0.193-0.043 0.363-0.115 0.516-0.212l-0.007 0.004c0.048-0.029 0.093-0.058 0.139-0.091 0.041-0.030 0.088-0.060 0.137-0.086l0.007-0.003c0.020-0.010 0.037-0.020 0.053-0.032l-0.001 0.001 7.788-7.788c0.329-0.307 0.534-0.744 0.534-1.228 0-0.927-0.752-1.679-1.679-1.679-0.484 0-0.92 0.205-1.227 0.533l-0.001 0.001-4.927 4.937v-13.519c0-0.927-0.752-1.679-1.679-1.679s-1.679 0.752-1.679 1.679v0 13.519l-4.927-4.927c-0.301-0.303-0.718-0.49-1.179-0.49-0.003 0-0.005 0-0.008 0h0z"></path>
</symbol>
<symbol id="icon-logo2" viewBox="0 0 88 32">
<title>logo2</title>
<path d="M47.703 17.486v-5.814c2.278-0.447 3.648 0.963 3.648 3.028 0.034 1.79-1.583 2.856-3.648 2.787zM51.626 18.072c1.72-0.651 2.717-1.961 2.615-3.785-0.172-2.615-2.337-3.957-6.71-3.75l-1.79 0.068-0.745-0.010c-0.204 0.396-0.459 0.735-0.762 1.024l-0.002 0.001c0.516 0.179 0.613 0.571 0.613 1.256v8.601c0 1.139-0.137 1.479-1.617 1.479v0.895l1.858-0.068h2.167l1.926 0.068v-0.895c-1.479 0-1.479-0.275-1.479-1.549v-2.681c0.343 0 0.722-0.034 1.066-0.068 1.723 2.304 4.819 5.911 8.506 5.195v-0.929c-1.139 0-2.581-1.102-5.643-4.852z"></path>
<path d="M4.955 15.698c-1.926-1.067-2.649-2.031-2.201-3.17 0.277-0.792 1.067-1.139 1.961-0.997 1.102 0.068 1.652 0.343 1.926 1.445h1.067l-0.172-2.4c-5.369-1.139-7.294 1.067-7.192 3.337 0.102 1.892 1.032 2.96 3.269 4.198 1.79 0.963 2.167 1.479 2.278 2.478 0.104 1.139-0.757 2.441-2.167 2.34-1.513-0.068-2.34-0.516-2.581-2.133h-1.142l0.138 2.719c4.645 1.995 8.017-0.651 8.155-3.028 0.138-2.065-0.55-3.235-3.337-4.782z"></path>
<path d="M18.267 21.168c-3.091 2.408-4.61 0.688-4.61-0.651 0-1.72 1.513-2.649 4.61-2.685zM21.123 20.789v-7.322c0-1.996-0.927-3.028-3.58-3.028-3.005 0-4.92 1.302-5.884 2.546-0.447 0.651-0.757 1.824 0.104 1.857 0.584 0.034 2.201-0.447 2.201-0.893 0-1.342 1.22-2.47 3.181-2.504 1.139 0 1.119 0.887 1.119 2.677v2.511c-4.748-0.102-7.363 1.892-7.467 4.268-0.104 2.306 2.512 5.264 7.535 1.617 0 1.17 2.099 2.856 5.161 0.55l-0.516-0.757c-1.686 1.1-1.858-0.275-1.858-1.515z"></path>
<path d="M35.742 9.642c-0.068 0.929-0.068 11.354-0.068 11.354 0 1.539-0.583 1.861-1.953 1.894h-0.626c-1.861-0.008-2.402-0.285-2.402-2.309v-8.659h4.597v-1.346h-4.631l0.031-3.091c0.033-6.699 4.294-6.297 5.47-4.881v0l0.018 0.023c0.031 0.039 0.062 0.078 0.088 0.117 0.030 0.046 0.059 0.085 0.091 0.122l-0.002-0.002c0.209 0.292 0.402 0.624 0.563 0.974l0.016 0.038c-0.727 1.417-1.194 3.295-1.194 5.766zM40.648 11.92c2.818 0.007 3.121-1.956 3.121-1.956-0.618 0.36-1.352 0.612-3.555 0.612h-1.925l0.034-3.091c0.034-6.915 4.575-6.263 5.574-4.748 0.55 0.859 1.754 0.618 2.34-0.034 0.55-0.62 0.138-1.721-1.547-2.408-1.266-0.517-3.895-0.456-5.978 1.315-0.225-0.47-0.758-0.958-1.656-1.326-2.278-0.929-8.949 0-8.949 9.359 0 0.929-0.068 11.354-0.068 11.354 0 1.756-0.757 1.926-2.581 1.892v0.963l2.89-0.068h9.906l3.091 0.068v-0.963c-2.374 0.034-3.028-0.068-3.028-2.306v-8.656z"></path>
<path d="M64.748 22.958c-2.753-0.068-4.025-3.131-4.266-5.532-0.345-2.966 0.859-6.098 3.951-5.994 2.753 0.070 4.025 3.165 4.302 5.574 0.343 2.929-0.895 6.056-3.993 5.952zM64.296 10.267c-3.544 0.104-6.881 2.994-6.71 7.364 0.172 3.853 3.405 6.671 7.226 6.572 3.475-0.102 6.847-2.994 6.671-7.363-0.172-3.819-3.407-6.64-7.192-6.572z"></path>
<path d="M86.273 10.605h-1.339l-1.689-0.029v0.929c1.238 0 1.445 0.447 1.445 1.858v6.263c-1.926-2.278-7.467-8.052-8.298-9.050l-1.926 0.034-1.715-0.034v0.929c1.651 0 1.926 0.413 1.926 2.278v6.393c0 2.374-0.207 2.753-1.549 2.753v0.929l1.79-0.068h1.302l1.79 0.068v-0.929c-1.341 0-1.547-0.275-1.547-2.615v-5.82c1.72 2.278 7.708 8.362 8.637 9.462h1.377v-10.529c0-1.479 0.241-1.926 1.445-1.926v-0.924z"></path>
<path d="M27.704 10.275h-0.267s-0.934 0.688-3.131 0.688v0.963h3.396z"></path>
<path d="M13.79 28.103l-0.591 2.543-0.597-2.543h-0.631v3.837h0.622v-1.777l0.389 1.777h0.447l0.376-1.765v1.765h0.615v-3.837h-0.63z"></path>
<path d="M16.095 28.103v3.837h1.503v-0.612h-0.866v-1.001h0.745v-0.613h-0.745v-1.001h0.866v-0.61h-1.503z"></path>
<path d="M19.816 28.713v2.615h0.197q0.187 0 0.189-0.216v-2.18q0-0.218-0.189-0.218zM19.179 28.102h0.884q0.77 0 0.771 0.83v2.179q0 0.827-0.804 0.828h-0.851z"></path>
<path d="M22.48 28.103h0.638v3.837h-0.638v-3.837z"></path>
<path d="M24.65 28.103v0.61h0.508v3.227h0.638v-3.227h0.508v-0.61h-1.653z"></path>
<path d="M27.826 28.103v3.837h1.502v-0.612h-0.864v-1.001h0.744v-0.613h-0.744v-1.001h0.864v-0.61h-1.502z"></path>
<path d="M31.548 28.713v1.001h0.076c0.008 0 0.018 0.001 0.027 0.001 0.038 0 0.074-0.004 0.109-0.013l-0.003 0.001c0.072-0.030 0.122-0.1 0.122-0.182 0-0.008-0-0.016-0.001-0.024l0 0.001v-0.566q0-0.218-0.189-0.218zM30.915 28.103h0.838q0.771 0 0.771 0.83v0.566q0 0.521-0.418 0.675l0.615 1.767h-0.696l-0.438-1.65h-0.034v1.648h-0.638z"></path>
<path d="M34.838 28.713v1.001h0.076c0.008 0 0.018 0.001 0.027 0.001 0.038 0 0.074-0.004 0.109-0.013l-0.003 0.001c0.072-0.030 0.122-0.1 0.122-0.182 0-0.008-0.001-0.016-0.001-0.024l0 0.001v-0.566q0-0.218-0.189-0.218zM34.2 28.102h0.838q0.77 0 0.771 0.83v0.566q0 0.521-0.418 0.675l0.615 1.767h-0.698l-0.438-1.65h-0.034v1.65h-0.638z"></path>
<path d="M38.3 29.367l0.153 1.162h-0.306zM37.888 28.103l-0.389 2.467-0.182 1.37h0.643l0.107-0.797h0.47l0.106 0.797h0.651l-0.182-1.377-0.387-2.46z"></path>
<path d="M41.844 28.103v1.889l-0.425-1.889h-0.631v3.837h0.617v-1.839l0.407 1.839h0.631v-3.837h-0.599z"></path>
<path d="M44.119 28.103v3.837h1.502v-0.612h-0.864v-1.001h0.744v-0.613h-0.744v-1.001h0.864v-0.61h-1.502z"></path>
<path d="M48.011 29.367l0.153 1.162h-0.308zM47.599 28.103l-0.389 2.467-0.187 1.37h0.651l0.107-0.797h0.47l0.106 0.797h0.651l-0.195-1.377-0.387-2.46z"></path>
<path d="M51.556 28.103v1.889l-0.425-1.889h-0.631v3.837h0.617v-1.839l0.407 1.839h0.63v-3.837h-0.597z"></path>
<path d="M57.111 28.103l-0.491 1.523v-1.523h-0.638v3.837h0.638v-1.529l0.491 1.529h0.683l-0.732-1.918 0.732-1.918h-0.683z"></path>
<path d="M59.307 28.103h0.638v3.837h-0.638v-3.837z"></path>
<path d="M61.478 28.103v0.61h0.508v3.227h0.638v-3.227h0.508v-0.61h-1.653z"></path>
<path d="M66.27 31.17q0 0.828-0.828 0.83t-0.827-0.83v-2.299q0-0.828 0.827-0.828t0.828 0.828v0.543h-0.638v-0.543q0-0.215-0.187-0.216v0c-0.124 0-0.186 0.072-0.186 0.216v2.299q0 0.216 0.189 0.216c0.127 0 0.19-0.072 0.19-0.216v-0.543h0.638z"></path>
<path d="M68.904 28.103v1.611h-0.377v-1.611h-0.638v3.837h0.638v-1.612h0.377v1.612h0.638v-3.837h-0.638z"></path>
<path d="M71.218 28.103v3.837h1.503v-0.612h-0.866v-1.001h0.744v-0.613h-0.744v-1.001h0.866v-0.61h-1.503z"></path>
<path d="M75.357 28.103v1.889l-0.426-1.889h-0.63v3.837h0.617v-1.839l0.407 1.839h0.63v-3.837h-0.597z"></path>
</symbol>
<symbol id="icon-mission" viewBox="0 0 37 32">
<title>mission</title>
<path d="M2.121 10.57l3.438-1.805 3.434 1.805-0.654-3.826 2.775-2.706-3.838-0.558-1.717-3.48-1.721 3.48-3.838 0.558 2.779 2.706-0.658 3.826z"></path>
<path d="M31.769 0l-1.717 3.464-3.849 0.558 2.779 2.695-0.654 3.826 3.434-1.805 3.434 1.805-0.654-3.826 2.779-2.695-3.83-0.558zM33.644 5.82l-0.485 0.473 0.115 0.67 0.216 1.247-1.12-0.589-0.601-0.308-0.589 0.308-1.12 0.589 0.216-1.247 0.115-0.67-0.485-0.473-0.92-0.881 1.921-0.277 0.3-0.608 0.558-1.136 0.57 1.132 0.3 0.608 1.921 0.277z"></path>
<path d="M10.008 19.921c-0.581 0.831-0.566 2.059 0.050 3.753 0.642 1.617 1.444 3.014 2.413 4.276l-0.030-0.041c0.413 0.535 0.867 1.005 1.367 1.42l0.015 0.012 0.266 0.239c0.1 0.303 0.194 0.677 0.262 1.060l0.008 0.052c0.015 0.088 0.035 0.164 0.061 0.238l-0.003-0.011 0.039 0.108 0.339 0.974h9.493l0.308-1.039 0.385-1.359c0.574-0.589 1.767-1.979 1.767-4.927 0-0.885 0-2.879 0-4.485v-1.917c0.001-0.029 0.002-0.063 0.002-0.098 0-1.397-1.132-2.529-2.529-2.529-0.029 0-0.058 0.001-0.087 0.001l0.004-0c-0 0-0.001 0-0.002 0-0.116 0-0.23 0.010-0.341 0.029l0.012-0.002c-0.439-0.738-1.233-1.224-2.14-1.224-0.005 0-0.011 0-0.016 0h0.001c-0.003 0-0.006 0-0.009 0-0.328 0-0.641 0.062-0.929 0.175l0.017-0.006q-0.073-0.089-0.154-0.169c-0.471-0.469-1.121-0.76-1.839-0.76-0.103 0-0.205 0.006-0.306 0.018l0.012-0.001c0-0.816 0-1.494 0-1.817 0.001-0.032 0.002-0.069 0.002-0.106 0-0.942-0.515-1.763-1.279-2.197l-0.012-0.007 1.54-0.805 3.434 1.805-0.654-3.826 2.779-2.695-3.872-0.597-1.717-3.464-1.725 3.464-3.849 0.574 2.779 2.695-0.439 2.552c-1.197 0.191-2.103 1.207-2.121 2.439l-0 0.002c-0.035 3.203-0.035 5.924-0.023 7.884-0.432-0.332-0.972-0.544-1.559-0.577l-0.007-0c-0.005-0-0.011-0-0.016-0-0.699 0-1.317 0.349-1.688 0.883l-0.004 0.007zM14.281 23.385h0.046c0.25-0.024 0.443-0.233 0.443-0.487 0-0.006-0-0.012-0-0.018l0 0.001c0-0.096-0.081-4.669 0-11.117 0.021-0.583 0.499-1.048 1.085-1.048 0.016 0 0.033 0 0.049 0.001l-0.002-0c0.003-0 0.007-0 0.011-0 0.585 0 1.059 0.474 1.059 1.059 0 0.045-0.003 0.089-0.008 0.132l0.001-0.005s0 6.863 0 7.017c-0.019 0.366 0.185 0.539 0.385 0.539 0.234-0.011 0.419-0.203 0.419-0.438 0-0.018-0.001-0.035-0.003-0.053l0 0.002c0-0.112 0-2.875 0-2.875-0.001-0.017-0.002-0.036-0.002-0.055 0-0.491 0.398-0.889 0.889-0.889 0.017 0 0.034 0 0.050 0.001l-0.002-0c0.007-0 0.016-0 0.025-0 0.604 0 1.093 0.489 1.093 1.093 0 0.022-0.001 0.043-0.002 0.065l0-0.003c0 0.154 0 2.914 0 2.914-0.002 0.016-0.003 0.035-0.003 0.054 0 0.235 0.185 0.428 0.418 0.438l0.001 0c0.2 0 0.385-0.158 0.385-0.477v-2.31c-0.001-0.017-0.002-0.038-0.002-0.058 0-0.527 0.427-0.955 0.955-0.955 0.013 0 0.026 0 0.038 0.001l-0.002-0c0.020-0.001 0.043-0.002 0.066-0.002 0.574 0 1.039 0.465 1.039 1.039 0 0.016-0 0.031-0.001 0.047l0-0.002v3.022c-0.001 0.011-0.002 0.024-0.002 0.037 0 0.223 0.168 0.407 0.385 0.432l0.002 0c0.237-0.001 0.429-0.194 0.429-0.431 0-0.014-0.001-0.027-0.002-0.040l0 0.002v-0.847c-0.027-1.563 0.104-2.071 0.601-2.071 0.023-0.002 0.049-0.003 0.076-0.003 0.597 0 1.082 0.484 1.082 1.082 0 0.027-0.001 0.053-0.003 0.079l0-0.003s0 0.185 0 0.473c0 1.409 0.023 4.727 0.023 5.928 0 2.556-1.020 3.58-1.455 4.019-0.055 0.052-0.106 0.107-0.152 0.166l-0.002 0.003-0.5 1.69h-7.352l-0.039-0.108s-0.239-1.324-0.485-1.682c-0.159-0.191-0.332-0.36-0.52-0.51l-0.007-0.006c-0.43-0.359-0.809-0.753-1.142-1.184l-0.013-0.017c-0.859-1.109-1.594-2.379-2.148-3.742l-0.039-0.108c-0.196-0.543-0.616-1.863-0.227-2.421 0.111-0.157 0.293-0.258 0.497-0.258 0.008 0 0.016 0 0.023 0l-0.001-0c0.524 0 1.852 0.932 2.083 2.467 0.028 0.235 0.226 0.416 0.467 0.416 0.001 0 0.002 0 0.003 0h-0z"></path>
</symbol>
<symbol id="icon-values" viewBox="0 0 27 32">
<title>values</title>
<path d="M0 13.562c0.008 6.345 4.364 11.671 10.249 13.157l0.094 0.020 3.219 5.261 3.222-5.261c5.98-1.499 10.339-6.827 10.339-13.173 0-7.49-6.072-13.562-13.562-13.562-7.488 0-13.559 6.069-13.562 13.557v0zM23.971 13.562c0 0 0 0 0 0 0 2.784-1.098 5.312-2.883 7.175l0.003-0.004c-0.15-3.955-4.672-2.080-4.771-4.333v-0.134c0.742-0.736 1.021-1.744 1.312-2.896 0.32-0.176 0.406-0.669 0.461-1.28 0.067-0.736-0.115-1.366-0.515-1.469-0.25-1.28-0.47-2.474-1.206-2.899-0.288-0.822-1.709-0.998-2.822-0.998-0.381 0-0.726 0.019-0.979 0.042-2.013 0.176-2.714 1.578-3.062 3.84-0.413 0.083-0.605 0.726-0.534 1.475 0.061 0.64 0.179 1.149 0.525 1.28 0.294 1.136 0.573 2.131 1.309 2.864v0.138c-0.102 2.272-4.627 0.349-4.781 4.336-1.775-1.863-2.867-4.39-2.867-7.173 0-5.747 4.659-10.406 10.406-10.406s10.406 4.659 10.406 10.406c0 0.013-0 0.026-0 0.039v-0.002z"></path>
</symbol>
<symbol id="icon-logo1" viewBox="0 0 110 32">
<title>logo1</title>
<path d="M60.112 17.189c1.636-0.622 2.587-1.866 2.489-3.601-0.165-2.482-2.229-3.758-6.385-3.562l-1.702 0.066-0.71-0.010c-0.193 0.378-0.436 0.701-0.724 0.977l-0.001 0.001c0.491 0.168 0.586 0.539 0.586 1.192v8.185c0 1.080-0.13 1.407-1.537 1.407v0.851l1.768-0.066h2.063l1.834 0.066v-0.851c-1.407 0-1.407-0.261-1.407-1.473v-2.553c0.327 0 0.688-0.032 1.015-0.066 1.636 2.193 4.584 5.632 8.087 4.943v-0.885c-1.084 0.001-2.458-1.045-5.373-4.622zM56.379 16.63v-5.524c2.161-0.419 3.47 0.917 3.47 2.882 0.034 1.702-1.507 2.717-3.47 2.652z"></path>
<path d="M15.702 14.938c-1.834-1.016-2.515-1.933-2.096-3.012 0.263-0.753 1.016-1.080 1.866-0.949 1.048 0.066 1.572 0.327 1.834 1.375h1.016l-0.163-2.29c-5.106-1.083-6.94 1.012-6.838 3.172 0.098 1.801 0.978 2.816 3.109 3.995 1.702 0.917 2.063 1.407 2.161 2.358 0.099 1.080-0.72 2.324-2.063 2.226-1.441-0.066-2.226-0.491-2.455-2.031h-1.083l0.131 2.587c4.42 1.899 7.629-0.622 7.759-2.882 0.127-1.965-0.524-3.077-3.177-4.55z"></path>
<path d="M31.087 19.783v-6.974c0-1.899-0.883-2.882-3.406-2.882-2.859 0-4.682 1.244-5.598 2.423-0.419 0.622-0.72 1.734 0.099 1.768 0.559 0.032 2.096-0.419 2.096-0.851 0-1.277 1.161-2.351 3.027-2.383 1.080 0 1.065 0.838 1.065 2.546v2.39c-4.518-0.098-7.007 1.801-7.105 4.060-0.099 2.193 2.39 5.009 7.171 1.537 0 1.118 1.997 2.717 4.911 0.524l-0.491-0.72c-1.606 1.048-1.769-0.26-1.769-1.439zM28.369 20.144c-2.946 2.292-4.387 0.655-4.387-0.622 0-1.636 1.441-2.515 4.387-2.553z"></path>
<path d="M72.173 9.764c-3.372 0.099-6.549 2.85-6.385 7.007 0.163 3.667 3.241 6.352 6.876 6.252 3.306-0.098 6.515-2.848 6.352-7.007-0.163-3.633-3.241-6.318-6.842-6.252zM72.592 21.846c-2.619-0.066-3.831-2.979-4.053-5.271-0.327-2.816 0.819-5.795 3.765-5.698 2.619 0.066 3.831 3.012 4.093 5.31 0.326 2.777-0.852 5.753-3.8 5.659z"></path>
<path d="M82.046 13.104v6.090c0 2.26-0.197 2.619-1.474 2.619v0.885l1.704-0.066h1.244l1.702 0.066v-0.885c-1.276 0-1.473-0.261-1.473-2.488v-5.534c1.636 2.161 7.334 7.956 8.217 9.003h1.309v-10.019c0-1.407 0.229-1.834 1.375-1.834v-0.88l-1.576 0.029h-1.276l-1.599-0.029v0.885c1.178 0 1.375 0.419 1.375 1.768v5.959c-1.834-2.165-7.105-7.665-7.89-8.611l-1.834 0.032-1.634-0.032v0.885c1.568-0.003 1.829 0.389 1.829 2.158z"></path>
<path d="M49.666 11.348c2.682 0 2.974-1.867 2.974-1.867-0.593 0.344-1.291 0.581-3.388 0.581h-1.831l0.032-2.947c0.032-6.581 4.355-5.959 5.31-4.518 0.524 0.818 1.67 0.588 2.226-0.032 0.524-0.59 0.131-1.638-1.473-2.292-1.203-0.492-3.706-0.436-5.688 1.248-0.212-0.442-0.722-0.9-1.575-1.248-2.168-0.887-8.522-0.003-8.522 8.902 0 0.885-0.066 10.804-0.066 10.804 0 1.677-0.72 1.834-2.455 1.801v0.917l2.75-0.066h9.423l2.947 0.066v-0.917c-2.26 0.032-2.88-0.066-2.88-2.193v-8.24zM45 9.175c-0.066 0.885-0.066 10.804-0.066 10.804 0 1.465-0.559 1.771-1.86 1.801h-0.595c-1.775-0.008-2.285-0.27-2.285-2.197v-8.245h4.374v-1.276h-4.402l0.029-2.947c0.028-6.375 4.082-5.997 5.2-4.654v0s0.025 0.029 0.066 0.084l0.035 0.050c0.033 0.053 0.065 0.099 0.101 0.142l-0.002-0.002c0.193 0.275 0.373 0.588 0.523 0.918l0.015 0.037c-0.692 1.342-1.133 3.133-1.133 5.485z"></path>
<path d="M37.35 9.783h-0.253s-0.889 0.654-2.978 0.654v0.911h3.231z"></path>
<path d="M11.953 6.461c0.042-0.018 0.094-0.038 0.158-0.060 0.072-0.024 0.131-0.071 0.17-0.131l0.001-0.001c0.022-0.031 0.035-0.071 0.035-0.113 0-0.010-0.001-0.019-0.002-0.028l0 0.001c-0.011-0.043-0.046-0.076-0.090-0.084l-0.001-0c-0.017-0.003-0.036-0.004-0.056-0.004s-0.039 0.002-0.058 0.005l0.002-0c-0.038 0.002-0.073 0.013-0.103 0.031l0.001-0.001-0.521 0.279c-0.146 0.082-0.323 0.167-0.506 0.241l-0.032 0.012c-0.102 0.045-0.212 0.089-0.328 0.14-0.083 0.033-0.18 0.058-0.281 0.069l-0.005 0c0.001-0.022 0.003-0.044 0.007-0.064l-0 0.003c0.011-0.059 0.023-0.109 0.039-0.157l-0.002 0.009c0.015-0.049 0.031-0.096 0.047-0.14s0.029-0.082 0.043-0.115l0.091-0.26 0.087-0.247c0.24-0.228 0.472-0.467 0.69-0.71s0.443-0.524 0.66-0.78c0.14-0.168 0.28-0.337 0.419-0.499 0.131-0.157 0.255-0.332 0.364-0.516l0.010-0.019c0.027-0.049 0.050-0.105 0.065-0.164l0.001-0.005c0.014-0.048 0.022-0.103 0.022-0.16 0-0.010-0-0.020-0.001-0.030l0 0.001c-0.003-0.064-0.026-0.122-0.065-0.168l0 0c-0.046-0.050-0.108-0.084-0.179-0.093l-0.002-0c-0.023-0.007-0.050-0.011-0.078-0.011s-0.054 0.004-0.080 0.011l0.002-0.001-0.129 0.038h-0.008c-0.167 0.086-0.307 0.201-0.417 0.341l-0.002 0.003c-0.115 0.14-0.222 0.28-0.319 0.419s-0.201 0.303-0.284 0.45l-0.28 0.442c-0.127 0.217-0.254 0.439-0.375 0.658-0.080 0.14-0.158 0.292-0.233 0.44-0.006-0.033-0.020-0.062-0.039-0.087l0 0c-0.040-0.057-0.105-0.095-0.179-0.096h-0c-0.004-0-0.008-0-0.012-0-0.15 0-0.294 0.026-0.428 0.073l0.009-0.003-0.326 0.096c-0.125 0.037-0.232 0.080-0.334 0.132l0.011-0.005c-0.161 0.071-0.319 0.15-0.47 0.232-0.131 0.074-0.285 0.144-0.446 0.2l-0.021 0.006c-0.019 0.006-0.035 0.014-0.050 0.024l0.001-0-0.521 0.279c-0.146 0.082-0.323 0.167-0.506 0.241l-0.032 0.012c-0.102 0.045-0.212 0.089-0.328 0.14-0.083 0.033-0.18 0.058-0.281 0.069l-0.005 0c0.001-0.022 0.003-0.044 0.007-0.064l-0 0.003c0.011-0.059 0.023-0.109 0.039-0.157l-0.003 0.009c0.015-0.049 0.031-0.096 0.048-0.14s0.029-0.082 0.043-0.115l0.099-0.268q0.042-0.119 0.087-0.247c0.24-0.228 0.472-0.467 0.69-0.71s0.439-0.507 0.657-0.763c0.14-0.168 0.28-0.337 0.419-0.499 0.131-0.157 0.255-0.332 0.364-0.516l0.010-0.019c0.028-0.049 0.051-0.106 0.066-0.166l0.001-0.005c0.014-0.048 0.022-0.103 0.022-0.16 0-0.010-0-0.020-0.001-0.030l0 0.001c-0.003-0.064-0.027-0.123-0.066-0.168l0 0c-0.046-0.050-0.108-0.084-0.179-0.093l-0.002-0c-0.023-0.007-0.050-0.011-0.078-0.011s-0.054 0.004-0.080 0.011l0.002-0.001-0.129 0.038h-0.008c-0.167 0.086-0.307 0.201-0.417 0.341l-0.002 0.003c-0.115 0.14-0.222 0.28-0.319 0.419s-0.201 0.305-0.291 0.451l-0.268 0.442c-0.127 0.217-0.254 0.439-0.375 0.658-0.080 0.14-0.158 0.292-0.233 0.44-0.006-0.033-0.020-0.062-0.039-0.087l0 0c-0.041-0.059-0.107-0.096-0.183-0.096-0 0-0.001 0-0.001 0h0c-0.003-0-0.007-0-0.011-0-0.149 0-0.291 0.025-0.424 0.071l0.009-0.003-0.314 0.092h-0.011c-0.125 0.037-0.232 0.080-0.334 0.132l0.011-0.005c-0.161 0.071-0.319 0.15-0.47 0.232-0.131 0.074-0.285 0.144-0.446 0.2l-0.021 0.006h-0.015c-0.030 0.006-0.056 0.015-0.081 0.025l0.003-0.001c-0.057 0.023-0.106 0.049-0.151 0.079l0.003-0.002c-0.026 0.019-0.056 0.034-0.088 0.045l-0.002 0.001h-0.010c-0.099 0.050-0.222 0.106-0.362 0.166-0.108 0.049-0.247 0.102-0.389 0.148l-0.030 0.008c-0.109 0.036-0.247 0.073-0.388 0.101l-0.024 0.004c-0.066 0.015-0.142 0.024-0.22 0.024-0.034 0-0.068-0.002-0.102-0.005l0.004 0c-0.025 0-0.031-0.015-0.034-0.018s0-0.014 0.020-0.052v-0.007c0.013-0.040 0.034-0.074 0.060-0.102l-0 0 0.091-0.091c0.037-0.038 0.065-0.085 0.079-0.138l0.001-0.002c0.009-0.022 0.014-0.048 0.014-0.075 0-0.073-0.037-0.138-0.094-0.176l-0.001-0c-0.030-0.025-0.069-0.041-0.112-0.041-0.058 0-0.109 0.028-0.141 0.071l-0 0c-0.128 0.136-0.272 0.253-0.431 0.35l-0.009 0.005c-0.041 0.029-0.089 0.057-0.139 0.083l-0.008 0.004c-0.074 0.041-0.157 0.080-0.246 0.117-0.072 0.032-0.157 0.061-0.244 0.082l-0.010 0.002c-0.018 0.007-0.038 0.010-0.060 0.010-0.029 0-0.056-0.007-0.081-0.019l0.001 0c-0.025-0.021-0.021-0.064 0.011-0.126 0.053-0.099 0.112-0.184 0.178-0.262l-0.002 0.002c0.075-0.091 0.154-0.177 0.232-0.256s0.131-0.129 0.162-0.154c0.075-0.050 0.14-0.092 0.201-0.127 0.060-0.034 0.13-0.063 0.203-0.084l0.007-0.002 0.428-0.048c0.084-0.016 0.156-0.060 0.206-0.122l0.001-0.001c0.038-0.046 0.082-0.14-0.047-0.26h-0.007c-0.056-0.028-0.122-0.045-0.193-0.045-0.031 0-0.061 0.003-0.090 0.009l0.003-0c-0.141 0.017-0.265 0.041-0.386 0.073l0.020-0.004c-0.13 0.032-0.253 0.068-0.368 0.106s-0.197 0.068-0.242 0.087l-0.313 0.126-0.389 0.182c-0.14 0.057-0.263 0.117-0.382 0.179l-0.292 0.145c-0.047 0.018-0.082 0.059-0.089 0.11l-0 0.001c-0.001 0.006-0.001 0.013-0.001 0.019 0 0.034 0.011 0.066 0.029 0.091l-0-0c0.024 0.032 0.058 0.056 0.097 0.067l0.001 0c0.015 0.005 0.033 0.008 0.051 0.008 0.033 0 0.064-0.010 0.090-0.027l-0.001 0 0.377-0.186c0.14-0.068 0.28-0.14 0.394-0.197l0.191-0.096c-0.083 0.081-0.16 0.168-0.231 0.26l-0.004 0.006c-0.073 0.093-0.142 0.197-0.201 0.307l-0.006 0.012c-0.046 0.077-0.076 0.169-0.082 0.268l-0 0.002c0 0 0 0 0 0.001 0 0.128 0.066 0.24 0.165 0.306l0.001 0.001c0.084 0.054 0.187 0.085 0.297 0.085 0.015 0 0.029-0.001 0.043-0.002l-0.002 0c0.145-0.016 0.277-0.060 0.393-0.128l-0.005 0.003 0.341-0.197 0.165-0.098c-0.002 0.015-0.002 0.033-0.002 0.050 0 0.042 0.005 0.082 0.014 0.121l-0.001-0.003c0.033 0.107 0.116 0.189 0.22 0.222l0.002 0.001c0.063 0.024 0.136 0.038 0.212 0.038 0.030 0 0.060-0.002 0.089-0.006l-0.003 0c0.114-0.015 0.216-0.040 0.313-0.073l-0.011 0.003c0.111-0.038 0.203-0.078 0.292-0.123l-0.012 0.006c0.088-0.043 0.171-0.082 0.247-0.115l0.335-0.148c0.11-0.049 0.221-0.099 0.328-0.15 0.024-0.013 0.061-0.028 0.11-0.046s0.105-0.041 0.157-0.063c0.030-0.013 0.056-0.028 0.080-0.044l-0.002 0.001c0.089-0.018 0.168-0.051 0.237-0.097l-0.003 0.002c0.087-0.053 0.162-0.095 0.225-0.127l0.036-0.014q-0.056 0.066-0.106 0.14c-0.068 0.094-0.126 0.201-0.166 0.317l-0.003 0.009c-0.020 0.050-0.032 0.108-0.032 0.169 0 0.050 0.008 0.099 0.023 0.144l-0.001-0.003c0.049 0.11 0.148 0.191 0.267 0.213l0.002 0c0.038 0.010 0.082 0.016 0.127 0.016s0.089-0.006 0.131-0.017l-0.004 0.001c0.092-0.026 0.172-0.062 0.246-0.107l-0.004 0.002c0.080-0.043 0.149-0.090 0.214-0.142l-0.003 0.002c0.064-0.054 0.123-0.108 0.175-0.159l0.345-0.298c-0.018 0.049-0.038 0.105-0.057 0.163-0.022 0.063-0.040 0.138-0.050 0.215l-0.001 0.006c-0.003 0.023-0.005 0.049-0.005 0.075 0 0.049 0.006 0.096 0.017 0.141l-0.001-0.004c0.021 0.078 0.066 0.144 0.128 0.189l0.001 0.001c0.060 0.041 0.134 0.066 0.214 0.066 0 0 0.001 0 0.001 0h-0c0.081-0.001 0.157-0.016 0.228-0.043l-0.005 0.002c0.082-0.030 0.15-0.061 0.216-0.098l-0.008 0.004q0.095-0.053 0.173-0.091c0.173-0.096 0.351-0.193 0.527-0.288s0.354-0.186 0.535-0.279c0.042-0.018 0.094-0.038 0.158-0.060 0.047-0.016 0.087-0.040 0.12-0.071l-0 0c0.074-0.021 0.139-0.050 0.199-0.088l-0.003 0.002c0.087-0.053 0.162-0.095 0.225-0.127l0.036-0.014q-0.056 0.066-0.106 0.14c-0.071 0.097-0.13 0.209-0.171 0.329l-0.003 0.009c-0.020 0.050-0.032 0.108-0.032 0.169 0 0.050 0.008 0.099 0.023 0.144l-0.001-0.003c0.049 0.106 0.145 0.184 0.26 0.208l0.002 0c0.038 0.010 0.082 0.016 0.127 0.016s0.089-0.006 0.131-0.017l-0.004 0.001c0.090-0.024 0.169-0.057 0.242-0.099l-0.005 0.002c0.084-0.044 0.156-0.091 0.224-0.145l-0.003 0.002c0.064-0.054 0.123-0.108 0.175-0.159l0.345-0.298c-0.018 0.049-0.038 0.105-0.057 0.163-0.022 0.063-0.040 0.138-0.050 0.215l-0.001 0.006c-0.003 0.023-0.005 0.049-0.005 0.075 0 0.049 0.006 0.096 0.017 0.141l-0.001-0.004c0.017 0.080 0.061 0.148 0.121 0.197l0.001 0.001c0.060 0.041 0.134 0.066 0.214 0.066 0 0 0.001 0 0.001 0h-0c0.081-0.001 0.157-0.016 0.228-0.043l-0.005 0.002c0.082-0.030 0.15-0.061 0.216-0.098l-0.008 0.004q0.096-0.053 0.173-0.091c0.173-0.096 0.351-0.193 0.527-0.288s0.362-0.184 0.544-0.275zM9.886 6.108c-0.102 0.070-0.201 0.14-0.296 0.21-0.085 0.063-0.184 0.129-0.285 0.189l-0.016 0.009-0.075 0.045c-0.034 0.021-0.071 0.043-0.112 0.066-0.032 0.018-0.069 0.033-0.109 0.043l-0.003 0.001c-0.022 0-0.039 0-0.045 0s0-0.031 0-0.039c0.012-0.046 0.026-0.085 0.043-0.122l-0.002 0.005c0.020-0.045 0.039-0.087 0.060-0.126l0.042-0.080c0.076-0.117 0.168-0.215 0.274-0.297l0.003-0.002c0.074-0.064 0.158-0.121 0.247-0.168l0.007-0.004c0.073-0.040 0.159-0.067 0.25-0.075l0.003-0h0.127c0.050 0 0.101 0 0.147 0 0.051-0.004 0.099-0.015 0.143-0.033l-0.003 0.001 0.024-0.011zM11.131 4.879l0.18-0.316c0.115-0.184 0.236-0.365 0.362-0.534 0.137-0.184 0.271-0.346 0.413-0.5l-0.004 0.004 0.183-0.211c0.037-0.044 0.079-0.082 0.125-0.115l0.002-0.001c-0.019 0.041-0.039 0.075-0.060 0.108l0.002-0.003c-0.035 0.051-0.072 0.112-0.106 0.175l-0.006 0.011c-0.056 0.092-0.116 0.183-0.179 0.268s-0.129 0.176-0.191 0.263c-0.14 0.19-0.3 0.377-0.458 0.559q-0.129 0.145-0.263 0.291zM6.030 6.108c-0.102 0.070-0.201 0.14-0.296 0.21-0.085 0.063-0.184 0.129-0.285 0.189l-0.016 0.009-0.075 0.045c-0.034 0.021-0.071 0.043-0.112 0.066-0.032 0.018-0.069 0.033-0.109 0.043l-0.003 0.001c-0.022 0-0.039 0-0.045 0s0-0.028 0-0.039c0.012-0.046 0.026-0.085 0.043-0.122l-0.002 0.005c0.020-0.045 0.039-0.087 0.060-0.126l0.042-0.080c0.077-0.114 0.17-0.211 0.276-0.29l0.003-0.002c0.076-0.065 0.162-0.123 0.254-0.171l0.008-0.004c0.073-0.040 0.159-0.067 0.25-0.075l0.003-0h0.124c0.050 0 0.101 0 0.147 0 0.051-0.004 0.099-0.015 0.143-0.033l-0.003 0.001 0.024-0.011zM7.275 4.879l0.18-0.317c0.115-0.184 0.236-0.363 0.362-0.532 0.137-0.184 0.271-0.346 0.413-0.5l-0.004 0.004 0.183-0.211c0.037-0.044 0.079-0.082 0.125-0.115l0.002-0.001c-0.019 0.041-0.039 0.075-0.060 0.108l0.002-0.003c-0.035 0.051-0.072 0.112-0.106 0.175l-0.006 0.011c-0.056 0.092-0.116 0.183-0.179 0.268s-0.129 0.175-0.191 0.263c-0.14 0.19-0.3 0.379-0.458 0.559q-0.131 0.145-0.263 0.291z"></path>
<path d="M21.48 6.473l0.060-0.020c0.059-0.020 0.117-0.041 0.171-0.063 0.058-0.023 0.107-0.056 0.147-0.098l0-0c0.052-0.032 0.117-0.067 0.183-0.098l0.013-0.006c0.088-0.041 0.179-0.085 0.268-0.13l0.377-0.158c0.082-0.035 0.184-0.071 0.289-0.099l0.017-0.004c-0.108 0.253-0.238 0.471-0.392 0.669l0.005-0.007-0.074 0.074c-0.033 0.032-0.061 0.069-0.084 0.109l-0.001 0.002c-0.018 0.030-0.028 0.066-0.028 0.104 0 0.013 0.001 0.025 0.003 0.037l-0-0.001c0.017 0.061 0.063 0.108 0.122 0.127l0.001 0c0.028 0.017 0.062 0.027 0.099 0.027 0.028 0 0.054-0.006 0.078-0.017l-0.001 0c0.050-0.021 0.092-0.049 0.129-0.084l-0 0c0.122-0.089 0.242-0.184 0.355-0.279s0.231-0.191 0.347-0.279c0.103-0.076 0.222-0.154 0.346-0.226l0.019-0.010c0.089-0.051 0.194-0.098 0.302-0.136l0.014-0.004c-0.008 0.027-0.017 0.053-0.028 0.078l-0.053 0.14c-0.018 0.040-0.038 0.074-0.062 0.106l0.001-0.001c-0.032 0.045-0.064 0.092-0.096 0.14-0.029 0.042-0.056 0.090-0.079 0.141l-0.002 0.006c-0.013 0.026-0.021 0.056-0.021 0.089 0 0.022 0.004 0.044 0.011 0.064l-0-0.001c0.018 0.071 0.082 0.123 0.157 0.123 0.014 0 0.027-0.002 0.039-0.005l-0.001 0c0.085-0.018 0.16-0.051 0.226-0.095l-0.002 0.001c0.078-0.050 0.146-0.1 0.209-0.154l-0.003 0.002c0.064-0.054 0.108-0.091 0.13-0.108 0.165-0.115 0.338-0.231 0.517-0.344 0.157-0.105 0.337-0.199 0.527-0.273l0.019-0.006c0.052-0.025 0.123-0.057 0.212-0.095 0.033-0.016 0.072-0.026 0.113-0.026 0.020 0 0.040 0.002 0.060 0.007l-0.002-0c0.001 0.008 0.002 0.018 0.002 0.028 0 0.041-0.009 0.079-0.026 0.113l0.001-0.002c-0.031 0.063-0.068 0.118-0.11 0.167l0.001-0.001c-0.045 0.054-0.091 0.103-0.139 0.149l-0.001 0.001c-0.049 0.045-0.095 0.090-0.138 0.138l-0.001 0.002c-0.043 0.045-0.082 0.095-0.114 0.149l-0.002 0.004c-0.034 0.053-0.060 0.116-0.073 0.182l-0.001 0.003c-0.004 0.019-0.006 0.040-0.006 0.062 0 0.044 0.008 0.086 0.023 0.125l-0.001-0.002c0.031 0.071 0.088 0.125 0.159 0.152l0.002 0.001c0.066 0.030 0.144 0.048 0.226 0.048s0.159-0.018 0.229-0.049l-0.004 0.001c0.152-0.060 0.279-0.113 0.404-0.163l0.268-0.115c0.108-0.048 0.197-0.095 0.283-0.146l-0.012 0.007 0.14-0.066c0.085-0.037 0.157-0.075 0.225-0.117l-0.007 0.004 0.035-0.022c0.037-0.003 0.070-0.017 0.097-0.037l-0.001 0c0.033-0.024 0.071-0.047 0.111-0.065l0.004-0.002h0.008l0.151-0.094 0.027-0.017c0.039-0.024 0.080-0.048 0.12-0.068 0 0.024 0.003 0.048 0.007 0.071l-0-0.003c0.010 0.053 0.021 0.106 0.035 0.158 0.037 0.144 0.108 0.268 0.204 0.368l-0-0c0.089 0.090 0.194 0.163 0.311 0.214l0.006 0.003c0.111 0.049 0.241 0.081 0.376 0.091l0.004 0c0.032 0.003 0.070 0.004 0.109 0.004 0.104 0 0.206-0.011 0.304-0.031l-0.010 0.002c0.358-0.097 0.651-0.196 0.936-0.31l-0.056 0.020 0.479-0.211c0.043-0.018 0.094-0.038 0.15-0.056 0.068-0.022 0.123-0.067 0.159-0.125l0.001-0.001c0.021-0.026 0.033-0.059 0.033-0.095 0-0.009-0.001-0.019-0.003-0.028l0 0.001c-0.009-0.034-0.032-0.061-0.062-0.075l-0.001-0c-0.033-0.020-0.074-0.032-0.116-0.032-0.021 0-0.042 0.003-0.061 0.008l0.002-0h-0.011c-0.048 0.028-0.109 0.058-0.17 0.085l-0.013 0.005c-0.067 0.029-0.14 0.060-0.197 0.092-0.112 0.053-0.253 0.109-0.397 0.158l-0.029 0.008c-0.116 0.040-0.265 0.081-0.417 0.114l-0.028 0.005c-0.102 0.018-0.224 0.032-0.347 0.037l-0.006 0c-0.017 0.001-0.037 0.001-0.057 0.001-0.109 0-0.215-0.016-0.314-0.045l0.008 0.002c-0.115-0.033-0.214-0.087-0.299-0.159l0.001 0.001c-0.067-0.061-0.117-0.142-0.139-0.233l-0.001-0.003c0.026 0.002 0.056 0.003 0.086 0.003 0.114 0 0.224-0.015 0.328-0.043l-0.009 0.002c0.149-0.038 0.28-0.094 0.399-0.167l-0.006 0.004 0.15-0.091c0.072-0.043 0.134-0.089 0.191-0.141l-0.001 0.001c0.054-0.049 0.097-0.11 0.126-0.178l0.001-0.003c0.009-0.022 0.014-0.047 0.014-0.074 0-0.054-0.021-0.103-0.056-0.139l0 0c-0.073-0.092-0.182-0.153-0.305-0.162l-0.001-0c-0.049-0.006-0.105-0.010-0.163-0.010s-0.114 0.004-0.169 0.011l0.007-0.001c-0.189 0.038-0.358 0.106-0.508 0.199l0.006-0.004c-0.15 0.090-0.273 0.212-0.361 0.357l-0.003 0.005c-0.147 0.060-0.268 0.12-0.385 0.187l0.016-0.008c-0.116 0.066-0.232 0.127-0.344 0.183-0.048 0.013-0.090 0.030-0.129 0.052l0.003-0.002c-0.047 0.025-0.086 0.050-0.123 0.078l0.003-0.002c-0.024 0.018-0.051 0.036-0.079 0.051l-0.003 0.002-0.024 0.011-0.215 0.099c-0.075 0.035-0.158 0.067-0.246 0.099v0c-0.085 0.040-0.193 0.081-0.304 0.117l-0.022 0.006c-0.078 0.028-0.167 0.045-0.26 0.045-0.001 0-0.003 0-0.004 0h0c0.059-0.103 0.123-0.203 0.19-0.299 0.084-0.119 0.168-0.247 0.252-0.382 0.039-0.064 0.068-0.139 0.082-0.22l0.001-0.004c0.005-0.027 0.009-0.058 0.009-0.090 0-0.048-0.007-0.095-0.021-0.139l0.001 0.003c-0.024-0.074-0.074-0.134-0.138-0.171l-0.001-0.001c-0.054-0.030-0.119-0.048-0.188-0.048-0.026 0-0.052 0.003-0.077 0.007l0.003-0c-0.168 0.024-0.318 0.081-0.451 0.164l0.005-0.003c-0.14 0.084-0.27 0.165-0.389 0.24l-0.432 0.264-0.271 0.165q0.020-0.042 0.036-0.084c0.031-0.076 0.056-0.164 0.069-0.256l0.001-0.006c0.038-0.193-0.047-0.27-0.127-0.3-0.047-0.019-0.101-0.031-0.157-0.031s-0.111 0.011-0.16 0.032l0.003-0.001c-0.099 0.039-0.182 0.079-0.261 0.124l0.010-0.005c-0.1 0.061-0.184 0.12-0.265 0.184l0.006-0.005c-0.091 0.064-0.193 0.14-0.303 0.226l-0.207 0.161c0.024-0.045 0.047-0.088 0.074-0.129 0.029-0.044 0.059-0.082 0.091-0.118l-0.001 0.001c0.044-0.050 0.085-0.106 0.121-0.165l0.003-0.005c0.034-0.053 0.057-0.116 0.064-0.184l0-0.002c0-0.002 0-0.004 0-0.005 0-0.075-0.041-0.139-0.102-0.173l-0.001-0c-0.040-0.018-0.087-0.028-0.137-0.028-0.035 0-0.069 0.005-0.1 0.015l0.002-0.001c-0.103 0.025-0.192 0.056-0.277 0.093l0.010-0.004c-0.089 0.038-0.176 0.080-0.257 0.122s-0.14 0.070-0.186 0.091l-0.442 0.211c-0.14 0.070-0.295 0.147-0.442 0.231-0.048 0.014-0.087 0.028-0.125 0.044l0.006-0.003c-0.067 0.029-0.14 0.060-0.2 0.092-0.038 0.021-0.081 0.040-0.127 0.052l-0.004 0.001c-0.099 0.030-0.213 0.050-0.331 0.056l-0.003 0c-0.010 0.001-0.021 0.001-0.033 0.001-0.102 0-0.197-0.030-0.277-0.081l0.002 0.001c-0.030-0.018-0.056-0.038-0.080-0.060l0 0c0.057-0.092 0.102-0.198 0.129-0.311l0.001-0.007c0.007-0.026 0.011-0.057 0.011-0.088 0-0.101-0.042-0.192-0.11-0.256l-0-0c-0.031-0.023-0.068-0.040-0.109-0.047l-0.002-0c-0.005-0.058-0.036-0.108-0.080-0.139l-0.001-0c-0.060-0.037-0.132-0.059-0.209-0.059-0.038 0-0.075 0.005-0.109 0.015l0.003-0.001c-0.106 0.027-0.199 0.064-0.286 0.111l0.007-0.003-0.393 0.113c-0.165 0.047-0.299 0.095-0.43 0.149l0.026-0.010-0.978 0.419c-0.022 0.005-0.042 0.013-0.060 0.023l0.001-0.001-0.907 0.475c0.006-0.023 0.009-0.049 0.009-0.076s-0.003-0.053-0.010-0.078l0 0.002c-0.046-0.115-0.134-0.205-0.244-0.253l-0.003-0.001c-0.043-0.023-0.094-0.040-0.147-0.049l-0.003-0c-0.067-0.015-0.14-0.032-0.21-0.052-0.062-0.016-0.117-0.040-0.166-0.071l0.002 0.001c-0.018-0.013-0.021-0.020-0.021-0.020s0 0 0.010-0.015 0.025-0.027 0.092-0.045c0.068-0.018 0.127-0.040 0.183-0.068l-0.005 0.002c0.054-0.026 0.101-0.061 0.14-0.102l0-0c0.034-0.036 0.060-0.102 0-0.208v0c-0.029-0.035-0.068-0.063-0.111-0.078l-0.002-0.001c-0.025-0.010-0.053-0.016-0.084-0.016-0.023 0-0.044 0.003-0.065 0.010l0.002-0c-0.146 0.015-0.279 0.051-0.402 0.107l0.008-0.003c-0.148 0.061-0.295 0.127-0.439 0.198s-0.28 0.14-0.396 0.208l-0.243 0.14c-0.035 0.017-0.063 0.047-0.076 0.083l-0 0.001c-0.009 0.022-0.014 0.047-0.014 0.073 0 0.008 0.001 0.017 0.002 0.025l-0-0.001c0.007 0.038 0.028 0.070 0.058 0.091l0 0c0.024 0.017 0.053 0.027 0.085 0.027 0.011 0 0.021-0.001 0.031-0.003l-0.001 0c0.093-0.008 0.176-0.044 0.241-0.101l-0.001 0c0.058-0.048 0.123-0.094 0.191-0.135l0.008-0.004 0.253-0.11 0.203-0.087c-0.001 0.013-0.002 0.027-0.002 0.042s0.001 0.029 0.002 0.044l-0-0.002c0.019 0.075 0.060 0.138 0.117 0.183l0.001 0.001c0.066 0.046 0.144 0.078 0.229 0.092l0.003 0c0.115 0.025 0.211 0.053 0.305 0.085l-0.018-0.006c0.069 0.019 0.128 0.057 0.173 0.107l0 0c0.027 0.036-0.020 0.101-0.064 0.148v0c-0.039 0.050-0.085 0.091-0.138 0.124l-0.002 0.001c-0.067 0.043-0.143 0.082-0.224 0.111l-0.008 0.002c-0.058 0.016-0.125 0.026-0.193 0.026-0.047 0-0.092-0.004-0.137-0.013l0.005 0.001c-0.049-0.011-0.116-0.042-0.13-0.183-0.003-0.065-0.035-0.122-0.082-0.159l-0-0c-0.032-0.023-0.072-0.037-0.115-0.037-0.016 0-0.031 0.002-0.046 0.005l0.001-0c-0.056 0.013-0.104 0.042-0.139 0.082l-0 0c-0.034 0.038-0.054 0.088-0.054 0.143 0 0.011 0.001 0.022 0.002 0.033l-0-0.001c0.003 0.137 0.066 0.259 0.164 0.34l0.001 0.001c0.097 0.091 0.228 0.147 0.371 0.147 0.001 0 0.002 0 0.003 0h-0c0.196-0 0.382-0.040 0.551-0.112l-0.009 0.003c0.171-0.071 0.351-0.152 0.537-0.242 0.154-0.084 0.31-0.165 0.464-0.245s0.31-0.154 0.463-0.224l0.148-0.061 0.021-0.010c0.043-0.013 0.080-0.028 0.116-0.046l-0.004 0.002c0.041-0.020 0.080-0.042 0.117-0.064l0.094-0.052c0.14-0.070 0.279-0.14 0.419-0.201 0.070-0.032 0.14-0.063 0.214-0.091l-0.021 0.021c-0.073 0.075-0.141 0.155-0.203 0.24l-0.004 0.006c-0.067 0.089-0.124 0.191-0.166 0.3l-0.003 0.009c-0.024 0.059-0.039 0.129-0.039 0.201 0 0.043 0.005 0.084 0.014 0.124l-0.001-0.004c0.040 0.123 0.133 0.218 0.252 0.259l0.003 0.001c0.080 0.036 0.173 0.057 0.271 0.057 0.029 0 0.057-0.002 0.084-0.005l-0.003 0c0.128-0.014 0.246-0.048 0.354-0.098l-0.007 0.003c0.119-0.055 0.221-0.116 0.316-0.186l-0.005 0.003c0.098-0.072 0.183-0.142 0.265-0.217l-0.002 0.002 0.151-0.204c0.065 0.056 0.143 0.1 0.229 0.126l0.005 0.001c0.092 0.028 0.198 0.045 0.308 0.045 0.001 0 0.002 0 0.004 0h-0c0.114-0.001 0.224-0.013 0.331-0.034l-0.011 0.002c0.12-0.022 0.224-0.049 0.325-0.083l-0.016 0.005zM28.467 5.763c0.023-0.036 0.048-0.068 0.076-0.097l-0 0c0.052-0.055 0.112-0.102 0.179-0.138l0.004-0.002c0.065-0.034 0.14-0.059 0.22-0.071l0.004-0c0.024-0.004 0.051-0.007 0.079-0.007s0.055 0.002 0.082 0.007l-0.003-0c-0.087 0.077-0.187 0.143-0.294 0.196l-0.008 0.004c-0.098 0.051-0.211 0.089-0.331 0.107l-0.006 0.001zM20.030 6.149c-0.028 0.047-0.059 0.087-0.095 0.123l-0.14 0.14c-0.106 0.097-0.236 0.17-0.381 0.208l-0.006 0.001c-0.082 0.021-0.175 0.033-0.272 0.033-0.065 0-0.128-0.005-0.19-0.016l0.007 0.001c-0.026-0.001-0.050-0.010-0.069-0.025l0 0s-0.013-0.013-0.008-0.038c0.014-0.074 0.044-0.14 0.085-0.197l-0.001 0.001c0.054-0.080 0.11-0.15 0.172-0.214l-0.001 0.001 0.14-0.14c0.108-0.090 0.231-0.167 0.364-0.226l0.010-0.004c0.109-0.049 0.235-0.085 0.368-0.101l0.007-0.001c-0.021 0.051-0.033 0.109-0.033 0.171 0 0.008 0 0.016 0.001 0.023l-0-0.001c0.001 0.094 0.016 0.183 0.044 0.268l-0.002-0.006z"></path>
<path d="M77.102 27.907c-0.074 0.014-0.14 0.034-0.203 0.062l0.005-0.002c-0.067 0.029-0.14 0.060-0.198 0.092-0.037 0.021-0.080 0.039-0.126 0.052l-0.004 0.001c-0.098 0.030-0.212 0.050-0.329 0.056l-0.003 0c-0.009 0.001-0.020 0.001-0.031 0.001-0.102 0-0.196-0.029-0.276-0.080l0.002 0.001c-0.029-0.018-0.055-0.037-0.079-0.059l0 0c0.057-0.091 0.102-0.197 0.129-0.31l0.001-0.007c0.007-0.026 0.011-0.055 0.011-0.086 0-0.1-0.042-0.191-0.11-0.255l-0-0c-0.031-0.023-0.067-0.039-0.108-0.046l-0.001-0c-0.005-0.058-0.036-0.108-0.080-0.139l-0.001-0c-0.059-0.037-0.13-0.058-0.207-0.058-0.038 0-0.075 0.005-0.11 0.016l0.003-0.001c-0.106 0.027-0.199 0.064-0.286 0.111l0.007-0.003-0.39 0.113c-0.165 0.047-0.298 0.095-0.428 0.149l0.026-0.010-0.995 0.43h-0.011c-0.030 0.006-0.056 0.012-0.081 0.021l0.004-0.001c-0.14 0.063-0.292 0.12-0.436 0.171l-0.437 0.152c-0.119 0.034-0.254 0.073-0.405 0.119-0.074 0.026-0.159 0.040-0.248 0.040-0.049 0-0.097-0.005-0.144-0.013l0.005 0.001c-0.001-0.007-0.001-0.015-0.001-0.024s0-0.017 0.001-0.025l-0 0.001c0.013-0.066 0.029-0.14 0.052-0.215s0.046-0.157 0.071-0.232c0.014-0.050 0.032-0.094 0.053-0.135l-0.002 0.004v-0.007c0.034-0.073 0.064-0.14 0.095-0.204 0.034-0.071 0.069-0.131 0.109-0.187l-0.003 0.004c0.088-0.068 0.173-0.14 0.253-0.207s0.158-0.14 0.231-0.203l0.119-0.025c0.303-0.038 0.619-0.087 0.936-0.14 0.357-0.064 0.668-0.148 0.968-0.254l-0.043 0.013c0.066-0.022 0.117-0.073 0.139-0.138l0-0.002c0.008-0.021 0.012-0.045 0.012-0.070 0-0.051-0.018-0.098-0.049-0.135l0 0c-0.031-0.050-0.085-0.084-0.148-0.084-0.011 0-0.021 0.001-0.031 0.003l0.001-0c-0.053 0.012-0.1 0.027-0.145 0.047l0.005-0.002-0.941 0.279-0.402 0.095c0.071-0.077 0.14-0.157 0.21-0.235 0.105-0.122 0.207-0.247 0.302-0.373 0.075-0.094 0.168-0.201 0.279-0.317 0.102-0.105 0.178-0.236 0.219-0.381l0.002-0.006c0.008-0.023 0.013-0.049 0.013-0.076 0-0.047-0.014-0.091-0.038-0.128l0.001 0.001c-0.037-0.060-0.103-0.099-0.177-0.099-0.002 0-0.005 0-0.007 0h0c-0.070 0.009-0.134 0.031-0.189 0.065l0.002-0.001-0.158 0.096c-0.274 0.218-0.509 0.468-0.704 0.749l-0.008 0.011c-0.201 0.288-0.391 0.569-0.559 0.838-0.105 0.011-0.211 0.018-0.316 0.021s-0.226 0-0.342 0c-0.002-0-0.005-0-0.008-0-0.074 0-0.135 0.052-0.15 0.121l-0 0.001c-0.005 0.015-0.008 0.032-0.008 0.050 0 0.059 0.033 0.111 0.081 0.138l0.001 0c0.059 0.029 0.129 0.046 0.203 0.046 0.038 0 0.074-0.004 0.109-0.013l-0.003 0.001c0.075-0.013 0.148-0.022 0.217-0.029l-0.081 0.14c-0.169 0.126-0.363 0.256-0.563 0.375l-0.031 0.017c-0.17 0.102-0.38 0.213-0.596 0.313l-0.044 0.018c-0.039 0.021-0.068 0.056-0.083 0.097l-0 0.001c-0.006 0.015-0.009 0.033-0.009 0.051 0 0.025 0.006 0.048 0.016 0.069l-0-0.001c0.017 0.035 0.045 0.062 0.079 0.079l0.001 0c0.018 0.008 0.039 0.013 0.061 0.013 0.029 0 0.057-0.008 0.080-0.023l-0.001 0c0.302-0.144 0.551-0.284 0.791-0.437l-0.030 0.018c-0.053 0.103-0.102 0.203-0.14 0.296-0.056 0.113-0.088 0.246-0.088 0.387 0 0.026 0.001 0.051 0.003 0.076l-0-0.003c0.007 0.144 0.107 0.262 0.241 0.297l0.002 0c0.051 0.011 0.109 0.017 0.169 0.017 0.081 0 0.159-0.011 0.232-0.033l-0.006 0.001c0.165-0.042 0.304-0.090 0.439-0.147l-0.020 0.007 0.319-0.133 0.681-0.249c0.044-0.019 0.101-0.040 0.16-0.057l0.012-0.003 0.036-0.014h0.029c0.046-0.013 0.085-0.029 0.122-0.048l-0.004 0.002c0.041-0.020 0.080-0.042 0.117-0.063l0.092-0.050c0.14-0.068 0.279-0.14 0.419-0.2 0.070-0.032 0.14-0.061 0.214-0.091l-0.021 0.021c-0.072 0.074-0.14 0.154-0.201 0.238l-0.004 0.006c-0.067 0.089-0.124 0.19-0.166 0.299l-0.003 0.009c-0.024 0.059-0.039 0.128-0.039 0.2 0 0.042 0.005 0.084 0.014 0.123l-0.001-0.004c0.028 0.106 0.096 0.194 0.187 0.246l0.002 0.001c0.079 0.035 0.171 0.056 0.267 0.056 0.001 0 0.002 0 0.002 0h-0c0.012 0.001 0.026 0.001 0.040 0.001s0.028-0 0.042-0.001l-0.002 0c0.127-0.015 0.244-0.048 0.351-0.098l-0.007 0.003c0.118-0.055 0.219-0.115 0.314-0.185l-0.005 0.003c0.097-0.071 0.182-0.142 0.264-0.216l-0.002 0.002 0.176-0.184c0.065 0.056 0.142 0.099 0.228 0.125l0.004 0.001c0.092 0.028 0.198 0.045 0.307 0.045 0.001 0 0.002 0 0.003 0h-0c0.113-0 0.223-0.011 0.33-0.031l-0.011 0.002c0.12-0.022 0.223-0.049 0.323-0.083l-0.016 0.005 0.055-0.018 0.060-0.020c0.059-0.020 0.116-0.041 0.171-0.063 0.055-0.023 0.101-0.056 0.139-0.098l0-0c0.025-0.027 0.040-0.064 0.040-0.103 0-0.030-0.009-0.058-0.024-0.082l0 0.001c-0.022-0.050-0.071-0.085-0.129-0.085-0.009 0-0.019 0.001-0.027 0.003l0.001-0zM75.433 28.023c-0.028 0.047-0.059 0.087-0.095 0.123l-0.14 0.14c-0.106 0.096-0.235 0.169-0.378 0.207l-0.006 0.001c-0.081 0.021-0.175 0.033-0.271 0.033-0.064 0-0.127-0.005-0.189-0.016l0.007 0.001c-0.026-0.001-0.050-0.010-0.069-0.025l0 0s-0.013-0.013-0.008-0.038c0.014-0.074 0.043-0.139 0.083-0.196l-0.001 0.001c0.054-0.079 0.11-0.149 0.171-0.213l-0.001 0.001 0.14-0.14c0.107-0.090 0.228-0.167 0.359-0.228l0.010-0.004c0.109-0.048 0.235-0.084 0.367-0.1l0.006-0.001c-0.021 0.050-0.033 0.109-0.033 0.17 0 0.008 0 0.015 0.001 0.022l-0-0.001c0.002 0.094 0.019 0.184 0.048 0.267l-0.002-0.006z"></path>
<path d="M95.748 27.9c-0.019-0.006-0.040-0.009-0.062-0.009s-0.044 0.003-0.064 0.010l0.001-0c-0.046 0.014-0.087 0.032-0.124 0.054l0.002-0.001c-0.022 0.014-0.047 0.027-0.074 0.038l-0.003 0.001c-0.082 0.038-0.165 0.078-0.246 0.12s-0.155 0.077-0.229 0.108c-0.225 0.088-0.408 0.151-0.544 0.189-0.172 0.047-0.201 0.017-0.201 0.015v0c-0.034-0.031-0.055-0.075-0.055-0.124 0-0.006 0-0.011 0.001-0.017l-0 0.001c0.004-0.082 0.020-0.159 0.046-0.23l-0.002 0.006c0.033-0.093 0.067-0.171 0.107-0.246l-0.005 0.010c0.041-0.078 0.077-0.14 0.108-0.191 0.038-0.047 0.061-0.108 0.061-0.174 0-0.038-0.008-0.074-0.021-0.107l0.001 0.002c-0.031-0.061-0.103-0.122-0.279-0.063h-0.010c-0.108 0.066-0.234 0.13-0.366 0.185l-0.018 0.007c-0.099 0.045-0.214 0.071-0.335 0.071-0.022 0-0.043-0.001-0.064-0.002l0.003 0c-0.009 0.001-0.019 0.001-0.029 0.001s-0.020-0-0.030-0.001l0.001 0c0.054-0.040 0.1-0.086 0.138-0.138l0.001-0.002c0.037-0.047 0.060-0.107 0.060-0.173 0-0.033-0.006-0.064-0.016-0.093l0.001 0.002c-0.031-0.092-0.112-0.158-0.21-0.166l-0.001-0c-0.008-0.001-0.017-0.001-0.027-0.001-0.14 0-0.265 0.067-0.343 0.172l-0.001 0.001c-0.077 0.089-0.123 0.206-0.123 0.334 0 0.004 0 0.009 0 0.013v-0.001c-0.14 0.081-0.279 0.157-0.397 0.222l-0.349 0.186c-0.019 0.005-0.036 0.012-0.051 0.020l0.001-0.001c-0.064 0.034-0.119 0.060-0.163 0.080v0c-0.207 0.109-0.456 0.217-0.713 0.309l-0.042 0.013-0.247 0.071c-0.030 0.011-0.065 0.018-0.102 0.018s-0.072-0.006-0.104-0.018l0.002 0.001c-0.006-0.023-0.009-0.049-0.009-0.076 0-0.040 0.007-0.079 0.021-0.115l-0.001 0.002c0.023-0.077 0.052-0.143 0.089-0.206l-0.002 0.004c0.035-0.061 0.070-0.114 0.108-0.164l-0.002 0.003c0.042-0.053 0.074-0.116 0.090-0.185l0.001-0.003c0.004-0.014 0.006-0.030 0.006-0.047 0-0.074-0.039-0.139-0.098-0.174l-0.001-0c-0.032-0.023-0.072-0.037-0.115-0.037s-0.083 0.014-0.116 0.037l0.001-0c-0.131 0.101-0.279 0.203-0.444 0.302-0.243 0.149-0.538 0.307-0.842 0.449l-0.058 0.024c-0.096 0.039-0.21 0.087-0.335 0.14-0.085 0.041-0.183 0.069-0.287 0.079l-0.004 0c0.014-0.107 0.057-0.203 0.121-0.28l-0.001 0.001c0.090-0.113 0.182-0.214 0.279-0.31l0.001-0.001c0.024-0.024 0.061-0.057 0.11-0.096 0.054-0.044 0.102-0.090 0.147-0.139l0.001-0.001c0.043-0.045 0.079-0.096 0.107-0.153l0.002-0.004c0.011-0.024 0.018-0.052 0.018-0.082 0-0.043-0.013-0.082-0.036-0.114l0 0.001c-0.035-0.055-0.095-0.090-0.164-0.090-0.019 0-0.038 0.003-0.055 0.008l0.001-0c-0.094 0.022-0.176 0.055-0.252 0.098l0.005-0.003c-0.098 0.053-0.179 0.103-0.257 0.157l0.010-0.006c-0.048 0.034-0.103 0.069-0.16 0.1l-0.009 0.005c-0.159 0.070-0.32 0.14-0.478 0.215-0.13 0.062-0.289 0.124-0.453 0.176l-0.028 0.007-0.024 0.011c-0.047 0.014-0.085 0.028-0.122 0.044l0.006-0.003c-0.067 0.029-0.14 0.060-0.198 0.092-0.037 0.021-0.080 0.039-0.126 0.052l-0.004 0.001c-0.098 0.030-0.212 0.050-0.329 0.056l-0.003 0c-0.009 0.001-0.020 0.001-0.031 0.001-0.102 0-0.196-0.029-0.276-0.080l0.002 0.001c-0.029-0.018-0.055-0.037-0.079-0.059l0 0c0.057-0.091 0.102-0.197 0.129-0.31l0.001-0.007c0.007-0.026 0.011-0.055 0.011-0.086 0-0.1-0.042-0.191-0.11-0.255l-0-0c-0.031-0.023-0.067-0.039-0.108-0.046l-0.001-0c-0.005-0.058-0.036-0.108-0.080-0.139l-0.001-0c-0.059-0.037-0.13-0.058-0.207-0.058-0.038 0-0.075 0.005-0.11 0.016l0.003-0.001c-0.106 0.027-0.199 0.064-0.286 0.111l0.007-0.003-0.39 0.113c-0.165 0.047-0.298 0.095-0.428 0.149l0.026-0.010-0.995 0.43c-0.012 0.006-0.023 0.013-0.032 0.021l0-0c-0.085 0.043-0.156 0.084-0.223 0.129l0.008-0.005c-0.143 0.096-0.266 0.188-0.383 0.286l0.007-0.006c-0.129 0.103-0.253 0.208-0.369 0.312s-0.217 0.194-0.306 0.279-0.147 0.14-0.172 0.162q-0.198 0.189-0.382 0.395l0.488-0.887c0.046-0.071 0.088-0.14 0.124-0.211 0.044-0.079 0.087-0.146 0.134-0.209l-0.004 0.005c0.043-0.076 0.083-0.138 0.126-0.198l-0.005 0.007c0.048-0.066 0.086-0.143 0.11-0.225l0.001-0.005v-0.007c0.002-0.012 0.004-0.027 0.004-0.041 0-0.046-0.014-0.089-0.038-0.124l0.001 0.001c-0.029-0.038-0.072-0.064-0.121-0.071l-0.001-0c-0.011-0.002-0.024-0.003-0.038-0.003-0.041 0-0.080 0.009-0.115 0.026l0.002-0.001c-0.047 0.019-0.086 0.045-0.12 0.077l0-0c-0.104 0.104-0.213 0.203-0.328 0.296l-0.008 0.006c-0.117 0.095-0.243 0.187-0.373 0.279h-0.007c-0.031 0.025-0.066 0.050-0.102 0.072l-0.004 0.002c-0.061 0.041-0.131 0.081-0.207 0.122s-0.14 0.074-0.207 0.103c-0.021 0.012-0.046 0.019-0.072 0.021l-0.001 0c-0.011-0.009-0.019-0.023-0.019-0.039 0-0.002 0-0.005 0.001-0.007l-0 0c0.001-0.042 0.007-0.081 0.018-0.119l-0.001 0.003c0.014-0.052 0.029-0.095 0.047-0.138l-0.002 0.006c0.018-0.043 0.036-0.079 0.057-0.113l-0.002 0.004c0.089-0.181 0.191-0.337 0.31-0.479l-0.003 0.003c0.046-0.051 0.095-0.097 0.148-0.138l0.003-0.002c0.060-0.046 0.11-0.102 0.148-0.166l0.001-0.003c0.030-0.034 0.048-0.079 0.048-0.129 0-0.045-0.015-0.086-0.040-0.119l0 0c-0.038-0.061-0.105-0.101-0.181-0.101-0.015 0-0.030 0.002-0.044 0.005l0.001-0c-0.145 0.037-0.272 0.099-0.383 0.181l0.003-0.002c-0.097 0.070-0.208 0.139-0.323 0.2l-0.015 0.007c-0.355 0.19-0.722 0.379-1.093 0.559-0.057 0.016-0.099 0.067-0.102 0.128v0c-0 0.005-0.001 0.010-0.001 0.015 0 0.056 0.030 0.106 0.074 0.134l0.001 0c0.027 0.016 0.060 0.025 0.095 0.025s0.068-0.009 0.096-0.026l-0.001 0c0.045-0.025 0.087-0.052 0.124-0.077 0.105-0.056 0.214-0.112 0.321-0.165s0.218-0.108 0.321-0.157l0.335-0.14c-0.049 0.082-0.098 0.166-0.14 0.253-0.065 0.114-0.121 0.245-0.163 0.383l-0.003 0.014c-0.023 0.072-0.037 0.155-0.037 0.241 0 0.039 0.003 0.077 0.008 0.114l-0.001-0.004c0.020 0.115 0.104 0.206 0.213 0.237l0.002 0c0.050 0.026 0.11 0.042 0.174 0.042 0.032 0 0.063-0.004 0.093-0.011l-0.003 0.001c0.094-0.024 0.177-0.060 0.252-0.108l-0.003 0.002c0.085-0.054 0.158-0.108 0.227-0.168l-0.002 0.002 0.19-0.166 0.242-0.184-0.041 0.081c-0.045 0.085-0.087 0.175-0.124 0.263-0.163 0.334-0.333 0.664-0.5 0.978s-0.342 0.64-0.52 0.963c-0.092 0.172-0.179 0.327-0.261 0.477l-0.261 0.465-0.080 0.117c-0.022 0.031-0.034 0.069-0.034 0.11 0 0.025 0.005 0.050 0.014 0.072l-0-0.001c0.016 0.071 0.070 0.127 0.138 0.146l0.001 0c0.023 0.008 0.050 0.014 0.078 0.014h0c0.047-0 0.090-0.014 0.127-0.038l-0.001 0.001 0.008-0.007c0.036-0.037 0.065-0.080 0.086-0.127l0.001-0.003c0.019-0.045 0.040-0.083 0.064-0.119l-0.002 0.003c0.063-0.126 0.13-0.254 0.2-0.38l0.208-0.379c0.19-0.303 0.395-0.602 0.614-0.889 0.225-0.295 0.454-0.557 0.699-0.802l-0 0c0.126-0.133 0.259-0.259 0.393-0.373s0.279-0.229 0.419-0.337c0.044-0.029 0.095-0.060 0.148-0.087l0.009-0.004c0.098-0.053 0.179-0.103 0.257-0.157l-0.009 0.006c0.039-0.027 0.077-0.055 0.112-0.082 0.042-0.013 0.077-0.028 0.111-0.045l-0.004 0.002c0.041-0.020 0.080-0.042 0.117-0.063l0.092-0.050c0.14-0.068 0.279-0.14 0.419-0.2q0.105-0.047 0.214-0.091l-0.021 0.021c-0.072 0.074-0.14 0.154-0.201 0.238l-0.004 0.006c-0.067 0.089-0.124 0.19-0.166 0.299l-0.003 0.009c-0.024 0.059-0.039 0.128-0.039 0.2 0 0.042 0.005 0.084 0.014 0.123l-0.001-0.004c0.039 0.122 0.132 0.217 0.25 0.258l0.003 0.001c0.080 0.036 0.173 0.056 0.27 0.056 0.028 0 0.055-0.002 0.082-0.005l-0.003 0c0.127-0.015 0.244-0.048 0.351-0.098l-0.007 0.003c0.118-0.054 0.219-0.115 0.314-0.185l-0.005 0.003c0.097-0.071 0.182-0.142 0.264-0.216l-0.002 0.002 0.176-0.184c0.065 0.056 0.142 0.099 0.228 0.125l0.004 0.001c0.092 0.028 0.198 0.045 0.307 0.045 0.001 0 0.002 0 0.003 0h-0c0.113-0 0.223-0.011 0.33-0.031l-0.011 0.002c0.12-0.022 0.223-0.049 0.323-0.083l-0.016 0.005 0.057-0.020 0.059-0.020c0.059-0.020 0.116-0.041 0.171-0.063 0.036-0.015 0.068-0.033 0.096-0.054l-0.001 0.001c0.089-0.027 0.164-0.056 0.236-0.090l-0.011 0.005c0.115-0.050 0.302-0.124 0.559-0.218v0l0.059-0.027q-0.057 0.081-0.11 0.165c-0.060 0.090-0.116 0.194-0.162 0.302l-0.005 0.012c-0.035 0.079-0.056 0.171-0.056 0.268 0 0.004 0 0.008 0 0.012v-0.001c0.002 0.092 0.065 0.169 0.15 0.191l0.001 0c0.052 0.020 0.112 0.032 0.174 0.032 0.043 0 0.085-0.006 0.124-0.016l-0.003 0.001c0.122-0.028 0.229-0.065 0.33-0.112l-0.010 0.004c0.106-0.049 0.208-0.101 0.305-0.155l0.246-0.14c0.165-0.070 0.327-0.147 0.484-0.231 0.119-0.063 0.24-0.124 0.363-0.183l-0.095 0.228c-0.022 0.061-0.035 0.131-0.035 0.204 0 0.036 0.003 0.071 0.009 0.106l-0.001-0.004c0.021 0.12 0.113 0.214 0.232 0.236l0.002 0c0.053 0.013 0.113 0.020 0.175 0.020 0.121 0 0.236-0.028 0.338-0.078l-0.004 0.002c0.159-0.073 0.307-0.14 0.439-0.196l0.668-0.313c0.039-0.003 0.075-0.018 0.104-0.040l-0.001 0c0.035-0.026 0.075-0.048 0.118-0.064l0.004-0.001h0.008l0.177-0.106c0.074-0.045 0.14-0.087 0.212-0.123l0.231-0.124c0.062 0.062 0.146 0.103 0.239 0.11l0.001 0c0.051 0.006 0.11 0.009 0.17 0.009s0.119-0.003 0.177-0.009l-0.007 0.001c0.122-0.010 0.234-0.029 0.342-0.058l-0.014 0.003 0.116-0.029-0.057 0.236c-0.013 0.050-0.027 0.103-0.042 0.155-0.014 0.044-0.027 0.101-0.038 0.158l-0.001 0.009c-0.004 0.026-0.006 0.057-0.006 0.088s0.002 0.062 0.007 0.091l-0-0.003c0.007 0.065 0.031 0.123 0.066 0.172l-0.001-0.001c0.059 0.085 0.156 0.14 0.266 0.14 0.005 0 0.009-0 0.014-0l-0.001 0c0.103-0.021 0.194-0.055 0.278-0.1l-0.005 0.003c0.128-0.043 0.236-0.091 0.339-0.146l-0.012 0.006 0.261-0.14 0.397-0.179 0.084-0.028c0.045-0.016 0.084-0.033 0.121-0.054l-0.004 0.002c0.040-0.022 0.074-0.046 0.105-0.073l-0.001 0.001c0.036-0.029 0.059-0.073 0.060-0.123v-0c0.003-0.089-0.024-0.138-0.074-0.155zM85.892 28.023c-0.028 0.047-0.059 0.087-0.095 0.123l-0.14 0.14c-0.106 0.096-0.235 0.169-0.378 0.207l-0.006 0.001c-0.081 0.021-0.175 0.033-0.271 0.033-0.064 0-0.127-0.005-0.189-0.016l0.007 0.001c-0.026-0.001-0.050-0.010-0.069-0.025l0 0s-0.013-0.013-0.008-0.038c0.014-0.074 0.043-0.139 0.083-0.196l-0.001 0.001c0.054-0.079 0.11-0.149 0.171-0.213l-0.001 0.001 0.14-0.14c0.108-0.090 0.231-0.167 0.363-0.227l0.010-0.004c0.109-0.048 0.235-0.084 0.367-0.1l0.006-0.001c-0.021 0.050-0.033 0.109-0.033 0.17 0 0.008 0 0.015 0.001 0.023l-0-0.001c0.001 0.093 0.016 0.182 0.044 0.266l-0.002-0.006z"></path>
<path d="M103.333 25.806c0.036 0.028 0.081 0.046 0.131 0.047h0c0.049-0.001 0.093-0.019 0.127-0.048l-0 0c0.058-0.044 0.103-0.103 0.13-0.171l0.001-0.003c0.023-0.055 0.062-0.099 0.112-0.128l0.001-0.001c0.144-0.099 0.322-0.161 0.513-0.168l0.002-0c0.033-0.002 0.072-0.003 0.111-0.003 0.158 0 0.313 0.016 0.462 0.047l-0.015-0.003c0.010 0.002 0.021 0.004 0.032 0.004 0.037 0 0.071-0.015 0.097-0.039l-0 0c0.032-0.027 0.055-0.065 0.064-0.108l0-0.001c0.001-0.007 0.002-0.015 0.002-0.024 0-0.063-0.042-0.116-0.099-0.134l-0.001-0c-0.042-0.012-0.090-0.020-0.139-0.021h-0.001c-0.145-0.021-0.313-0.034-0.484-0.034-0.070 0-0.14 0.002-0.209 0.006l0.010-0c-0.084 0.013-0.173 0.031-0.267 0.053-0.104 0.025-0.194 0.057-0.28 0.097l0.009-0.004c-0.091 0.042-0.168 0.095-0.237 0.157l0.001-0.001c-0.071 0.064-0.126 0.143-0.161 0.232l-0.001 0.004c-0.007 0.019-0.010 0.041-0.010 0.064 0 0.074 0.039 0.138 0.098 0.174l0.001 0z"></path>
<path d="M110.403 28.010c-0.009-0.033-0.032-0.060-0.062-0.074l-0.001-0c-0.033-0.019-0.072-0.030-0.114-0.030-0.022 0-0.042 0.003-0.062 0.009l0.002-0h-0.011c-0.048 0.027-0.108 0.057-0.169 0.083l-0.013 0.005c-0.067 0.029-0.14 0.060-0.197 0.091-0.109 0.052-0.248 0.108-0.39 0.156l-0.029 0.009c-0.115 0.040-0.263 0.080-0.414 0.112l-0.028 0.005c-0.102 0.018-0.223 0.032-0.346 0.038l-0.006 0c-0.018 0.001-0.038 0.002-0.059 0.002-0.107 0-0.211-0.015-0.309-0.044l0.008 0.002c-0.114-0.032-0.213-0.086-0.297-0.157l0.001 0.001c-0.067-0.061-0.117-0.141-0.139-0.232l-0.001-0.003c0.031 0.003 0.068 0.004 0.105 0.004 0.105 0 0.207-0.013 0.305-0.037l-0.009 0.002c0.148-0.038 0.278-0.094 0.396-0.167l-0.006 0.003 0.148-0.091c0.071-0.043 0.133-0.089 0.19-0.141l-0.001 0.001c0.054-0.049 0.097-0.109 0.126-0.177l0.001-0.003c0.009-0.022 0.014-0.047 0.014-0.073 0-0.054-0.021-0.102-0.056-0.138l0 0c-0.073-0.091-0.181-0.152-0.303-0.161l-0.001-0c-0.049-0.006-0.105-0.010-0.162-0.010s-0.113 0.004-0.169 0.011l0.007-0.001c-0.19 0.036-0.359 0.103-0.51 0.197l0.007-0.004c-0.15 0.090-0.272 0.211-0.359 0.356l-0.003 0.005c-0.146 0.060-0.267 0.119-0.383 0.186l0.016-0.008c-0.112 0.063-0.224 0.123-0.333 0.179-0.058 0.018-0.109 0.045-0.154 0.078l0.001-0.001c-0.055 0.041-0.117 0.078-0.183 0.11l-0.007 0.003c-0.080 0.031-0.162 0.060-0.246 0.089-0.066 0.024-0.15 0.048-0.236 0.067l-0.014 0.003c-0.024 0.006-0.051 0.009-0.079 0.009-0.082 0-0.159-0.027-0.22-0.074l0.001 0.001c-0.061-0.072-0.098-0.167-0.098-0.27 0-0.022 0.002-0.043 0.005-0.064l-0 0.002 0.372-0.707c0.067-0.061 0.14-0.123 0.211-0.183s0.151-0.131 0.221-0.203c0.221-0.189 0.421-0.384 0.609-0.59l0.005-0.005c0.184-0.201 0.357-0.42 0.515-0.65l0.013-0.020c0.048-0.061 0.094-0.129 0.135-0.201l0.005-0.009c0.055-0.083 0.102-0.178 0.137-0.279l0.003-0.009c0.016-0.042 0.025-0.090 0.025-0.14s-0.009-0.098-0.026-0.143l0.001 0.003c-0.036-0.089-0.14-0.14-0.289-0.14-0.002-0-0.005-0-0.008-0-0.135 0-0.26 0.040-0.365 0.109l0.002-0.002c-0.111 0.074-0.207 0.159-0.291 0.255l-0.001 0.002c-0.083 0.095-0.161 0.2-0.229 0.311l-0.006 0.010c-0.067 0.112-0.127 0.217-0.177 0.31-0.14 0.222-0.27 0.454-0.388 0.69s-0.233 0.46-0.352 0.686c-0.238 0.18-0.486 0.354-0.742 0.516-0.214 0.139-0.465 0.279-0.726 0.402l-0.040 0.017-0.050 0.011c-0.108 0.031-0.201 0.067-0.289 0.112l0.009-0.004c-0.098 0.047-0.194 0.098-0.279 0.15-0.047 0.029-0.104 0.060-0.163 0.088l-0.011 0.005c-0.106 0.038-0.226 0.075-0.355 0.113-0.079 0.026-0.17 0.041-0.264 0.041-0.018 0-0.036-0.001-0.054-0.002l0.002 0c-0.021-0.038-0.033-0.084-0.033-0.132 0-0.037 0.007-0.072 0.020-0.104l-0.001 0.002c0.033-0.118 0.070-0.217 0.113-0.313l-0.005 0.014c0.021-0.060 0.050-0.113 0.085-0.159l-0.001 0.002c0.041-0.054 0.072-0.118 0.089-0.188l0.001-0.004c0.032-0.172-0.050-0.221-0.103-0.233-0.038-0.009-0.081-0.014-0.126-0.014s-0.088 0.005-0.13 0.015l0.004-0.001c-0.107 0.024-0.201 0.054-0.29 0.092l0.011-0.004c-0.094 0.039-0.152 0.064-0.179 0.077l-0.941 0.451c-0.024 0.007-0.045 0.016-0.065 0.027l0.002-0.001c-0.049 0.028-0.105 0.053-0.164 0.070l-0.005 0.001h-0.007c-0.177 0.075-0.359 0.14-0.541 0.208-0.152 0.055-0.339 0.107-0.531 0.146l-0.028 0.005h-0.013c-0.020 0.006-0.044 0.009-0.068 0.010h-0l-0.14 0.014-0.14 0.021c-0.005-0.030-0.007-0.064-0.007-0.099s0.003-0.069 0.008-0.103l-0 0.004c0.014-0.105 0.037-0.2 0.067-0.29l-0.003 0.011c0.035-0.106 0.072-0.194 0.113-0.279l-0.006 0.013c0.039-0.081 0.074-0.159 0.105-0.233 0.373-0.277 0.703-0.562 1.010-0.869l-0 0c0.308-0.308 0.59-0.642 0.843-0.999l0.016-0.024c0.031-0.043 0.073-0.095 0.122-0.154 0.046-0.057 0.092-0.121 0.135-0.187l0.005-0.009c0.042-0.061 0.078-0.131 0.104-0.206l0.002-0.006c0.013-0.035 0.021-0.076 0.021-0.119s-0.008-0.083-0.021-0.121l0.001 0.002c-0.025-0.101-0.115-0.175-0.221-0.175-0.015 0-0.030 0.001-0.044 0.004l0.001-0c-0.104 0.014-0.198 0.044-0.284 0.089l0.005-0.002c-0.155 0.089-0.288 0.2-0.398 0.329l-0.002 0.002c-0.11 0.13-0.217 0.261-0.312 0.389s-0.228 0.298-0.335 0.446-0.219 0.302-0.324 0.443v0c-0.102 0.159-0.208 0.323-0.314 0.486-0.094 0.141-0.192 0.307-0.28 0.479l-0.014 0.029c-0.179 0.123-0.361 0.239-0.539 0.344-0.153 0.092-0.34 0.191-0.532 0.279l-0.038 0.016c-0.047 0.018-0.084 0.056-0.099 0.104l-0 0.001c-0.002 0.007-0.002 0.016-0.002 0.025 0 0.032 0.012 0.062 0.032 0.084l-0-0c0.036 0.052 0.096 0.086 0.163 0.086 0.015 0 0.030-0.002 0.045-0.005l-0.001 0h0.013c0.276-0.135 0.502-0.263 0.72-0.401l-0.031 0.018c-0.034 0.080-0.072 0.185-0.104 0.292l-0.006 0.023c-0.024 0.068-0.043 0.148-0.054 0.231l-0.001 0.006c-0.002 0.016-0.002 0.035-0.002 0.055 0 0.066 0.011 0.129 0.030 0.188l-0.001-0.004c0.026 0.078 0.075 0.142 0.139 0.186l0.001 0.001c0.055 0.036 0.123 0.058 0.195 0.058 0.024 0 0.047-0.002 0.070-0.007l-0.002 0c0.12-0.008 0.232-0.035 0.335-0.078l-0.007 0.003c0.102-0.041 0.207-0.081 0.313-0.119l1.11-0.411c0.031-0.014 0.057-0.028 0.082-0.045l-0.002 0.001h0.021c0.113-0.063 0.226-0.12 0.341-0.171 0.107-0.053 0.241-0.109 0.379-0.157l0.027-0.008c0.109-0.038 0.221-0.078 0.335-0.122-0.028 0.089-0.055 0.183-0.080 0.279-0.033 0.118-0.053 0.253-0.055 0.393v0.001c-0 0.006-0 0.014-0 0.021 0 0.11 0.032 0.213 0.087 0.3l-0.001-0.002c0.056 0.073 0.144 0.119 0.242 0.119 0.030 0 0.058-0.004 0.085-0.012l-0.002 0.001c0.171-0.028 0.325-0.077 0.468-0.144l-0.011 0.005c0.14-0.067 0.288-0.14 0.419-0.205 0.024-0.013 0.081-0.035 0.168-0.070s0.179-0.074 0.266-0.116c0.054-0.025 0.1-0.051 0.144-0.079l-0.004 0.003c0.004 0 0.008 0 0.012 0 0.035 0 0.068-0.009 0.097-0.025l-0.001 0.001 0.14-0.067c0.122-0.064 0.242-0.131 0.361-0.201l0.351-0.212 0.235-0.162-0.081 0.161c-0.172 0.091-0.319 0.198-0.451 0.321l0.001-0.001c-0.149 0.139-0.286 0.285-0.413 0.441l-0.006 0.008c-0.121 0.145-0.234 0.306-0.334 0.476l-0.009 0.017c-0.080 0.131-0.152 0.283-0.21 0.442l-0.006 0.018-0.047 0.162c-0.016 0.052-0.033 0.119-0.047 0.188l-0.002 0.013c-0.012 0.062-0.019 0.133-0.020 0.205v0c-0 0.003-0 0.006-0 0.009 0 0.065 0.017 0.126 0.046 0.179l-0.001-0.002c0.052 0.095 0.112 0.12 0.162 0.12 0.022-0 0.043-0.005 0.063-0.013l-0.001 0c0.082-0.037 0.151-0.090 0.205-0.156l0.001-0.001c0.060-0.070 0.118-0.146 0.171-0.226l0.005-0.008c0.057-0.087 0.092-0.14 0.11-0.173 0.14-0.235 0.289-0.475 0.419-0.713 0.123-0.214 0.243-0.435 0.359-0.658 0.070 0.094 0.165 0.165 0.275 0.206l0.004 0.001c0.065 0.017 0.139 0.027 0.215 0.027 0.096 0 0.189-0.015 0.276-0.044l-0.006 0.002c0.161-0.049 0.31-0.098 0.443-0.15v0l0.447-0.21c0.028-0.012 0.051-0.029 0.068-0.051l0-0c0.018-0.012 0.039-0.023 0.061-0.032l0.003-0.001h0.008l0.148-0.092 0.028-0.017c0.039-0.024 0.078-0.046 0.119-0.067-0.001 0.010-0.001 0.022-0.001 0.034s0.001 0.024 0.002 0.036l-0-0.002c0.010 0.053 0.021 0.106 0.035 0.157 0.037 0.144 0.108 0.267 0.204 0.366l-0-0c0.088 0.089 0.193 0.162 0.309 0.213l0.006 0.003c0.111 0.048 0.24 0.080 0.375 0.089l0.004 0c0.032 0.002 0.069 0.004 0.107 0.004 0.104 0 0.205-0.011 0.302-0.031l-0.010 0.002c0.356-0.096 0.648-0.195 0.932-0.309l-0.055 0.020 0.477-0.21c0.042-0.018 0.092-0.038 0.148-0.056 0.067-0.022 0.123-0.066 0.159-0.123l0.001-0.001c0.026-0.027 0.042-0.064 0.042-0.105 0-0.008-0.001-0.016-0.002-0.024l0 0.001zM107.84 27.637c0.023-0.036 0.048-0.067 0.076-0.095l-0 0c0.052-0.055 0.112-0.102 0.179-0.138l0.004-0.002c0.065-0.034 0.14-0.059 0.22-0.071l0.004-0c0.024-0.004 0.051-0.007 0.078-0.007s0.055 0.002 0.081 0.007l-0.003-0c-0.087 0.076-0.186 0.142-0.292 0.195l-0.008 0.004c-0.099 0.052-0.214 0.090-0.335 0.107l-0.006 0.001zM107.344 25.080c-0.010 0.035-0.022 0.064-0.035 0.092l0.002-0.004c-0.029 0.061-0.059 0.114-0.093 0.163l0.002-0.004c-0.112 0.181-0.23 0.337-0.36 0.482l0.003-0.003c-0.117 0.148-0.234 0.28-0.359 0.405l-0 0-0.157 0.154 0.14-0.246c0.088-0.14 0.183-0.289 0.279-0.426 0.104-0.146 0.211-0.275 0.326-0.395l-0.001 0.001c0.050-0.050 0.106-0.102 0.165-0.155 0.026-0.023 0.054-0.044 0.084-0.063l0.003-0.001zM100.201 26.727l0.027-0.042c0.063-0.098 0.13-0.198 0.198-0.298 0.127-0.172 0.256-0.34 0.382-0.5 0.132-0.168 0.265-0.317 0.407-0.458l0-0 0.194-0.19c0.033-0.032 0.068-0.061 0.105-0.089l0.003-0.002c-0.018 0.031-0.037 0.070-0.054 0.11l-0.003 0.009c-0.102 0.169-0.208 0.315-0.325 0.451l0.004-0.004c-0.255 0.331-0.522 0.625-0.811 0.896l-0.004 0.004zM104.874 28.499c-0.101 0.172-0.207 0.344-0.316 0.513-0.131 0.202-0.26 0.375-0.399 0.54l0.006-0.008c0.055-0.224 0.152-0.42 0.282-0.589l-0.003 0.004c0.129-0.172 0.269-0.322 0.424-0.457l0.004-0.003z"></path>
</symbol>
</defs>
</svg>
